<svg width="0" height="0" class="hidden">

  <symbol  viewBox="0 0 36 36" fill="none" xmlns="http://www.w3.org/2000/svg" id="detail">
    <path d="M35.7891 32.9766C35.9297 33.1172 36 33.3281 36 33.5391C36 33.8203 35.9297 34.0312 35.7891 34.1719L34.1719 35.7187C33.9609 35.9297 33.75 36 33.5391 36C33.2578 36 33.1172 35.9297 32.9766 35.7187L24.3984 27.2109C24.2578 27.0703 24.1875 26.8594 24.1875 26.6484V25.6641C22.8516 26.7891 21.375 27.7031 19.7578 28.3359C18.0703 28.9687 16.3828 29.25 14.625 29.25C11.9531 29.25 9.49219 28.6172 7.24219 27.2812C4.99219 26.0156 3.23437 24.2578 1.96875 22.0078C0.632812 19.7578 0 17.2969 0 14.625C0 11.9531 0.632812 9.5625 1.96875 7.3125C3.23437 5.0625 4.99219 3.30469 7.24219 1.96875C9.49219 0.703125 11.9531 0 14.625 0C17.2969 0 19.6875 0.703125 21.9375 1.96875C24.1875 3.30469 25.9453 5.0625 27.2812 7.3125C28.5469 9.5625 29.25 11.9531 29.25 14.625C29.25 16.4531 28.8984 18.1406 28.2656 19.7578C27.6328 21.4453 26.7891 22.9219 25.6641 24.1875H26.6484C26.8594 24.1875 27.0703 24.2578 27.2109 24.3984L35.7891 32.9766ZM14.625 25.875C16.5937 25.875 18.4922 25.3828 20.25 24.3984C21.9375 23.4141 23.3437 22.0078 24.3281 20.25C25.3125 18.5625 25.875 16.6641 25.875 14.625C25.875 12.6562 25.3125 10.7578 24.3281 9C23.3437 7.3125 21.9375 5.90625 20.25 4.92187C18.4922 3.9375 16.5937 3.375 14.625 3.375C12.5859 3.375 10.6875 3.9375 9 4.92187C7.24219 5.90625 5.83594 7.3125 4.85156 9C3.86719 10.7578 3.375 12.6562 3.375 14.625C3.375 16.6641 3.86719 18.5625 4.85156 20.25C5.83594 22.0078 7.24219 23.4141 9 24.3984C10.6875 25.3828 12.5859 25.875 14.625 25.875Z" fill="white"/>
  </symbol>
  <symbol viewBox="0 0 36 36" fill="none" xmlns="http://www.w3.org/2000/svg" id="edit">
    <path d="M0 28.501V36H7.49896L29.6159 13.8831L22.1169 6.38411L0 28.501ZM35.4151 8.08388C36.195 7.30399 36.195 6.04416 35.4151 5.26427L30.7357 0.584919C29.9558 -0.194973 28.696 -0.194973 27.9161 0.584919L24.2566 4.24441L31.7556 11.7434L35.4151 8.08388Z" fill="white"/>
  </symbol>
  <symbol viewBox="0 0 36 36" fill="none" xmlns="http://www.w3.org/2000/svg" id="delete">
    <path d="M36 3.62571L32.3743 0L18 14.3743L3.62571 0L0 3.62571L14.3743 18L0 32.3743L3.62571 36L18 21.6257L32.3743 36L36 32.3743L21.6257 18L36 3.62571Z" fill="white"/>
  </symbol>
  <symbol viewBox="0 0 55 53" fill="none" xmlns="http://www.w3.org/2000/svg" id="refresh">
    <path d="M27.5 40.28C19.58 40.28 13.2 34.132 13.2 26.5C13.2 23.108 14.52 19.928 16.83 17.384L18.48 18.762C16.5 20.882 15.4 23.638 15.4 26.5C15.4 32.966 20.79 38.16 27.5 38.16C29.26 38.16 30.91 37.842 32.56 37.1L33.44 39.008C31.57 39.856 29.59 40.28 27.5 40.28ZM38.17 35.722L36.52 34.344C38.5 32.224 39.6 29.468 39.6 26.606C39.6 20.14 34.21 14.946 27.5 14.946C25.74 14.946 24.09 15.264 22.44 16.006L21.56 14.098C23.43 13.25 25.41 12.826 27.5 12.826C35.42 12.826 41.8 18.974 41.8 26.606C41.8 29.892 40.48 33.178 38.17 35.722Z" fill="#316A55"/>
    <path d="M19.8 25.44H17.6V19.08H11V16.96H19.8V25.44ZM44 36.04H35.2V27.56H37.4V33.92H44V36.04Z" fill="#316A55"/>
  </symbol>
  <symbol viewBox="0 0 32 32" fill="none" xmlns="http://www.w3.org/2000/svg" id="save">
    <path d="M4 2C3.46957 2 2.96086 2.21071 2.58579 2.58579C2.21071 2.96086 2 3.46957 2 4V28C2 28.5304 2.21071 29.0391 2.58579 29.4142C2.96086 29.7893 3.46957 30 4 30H28C28.5304 30 29.0391 29.7893 29.4142 29.4142C29.7893 29.0391 30 28.5304 30 28V4C30 3.46957 29.7893 2.96086 29.4142 2.58579C29.0391 2.21071 28.5304 2 28 2H19C18.4696 2 17.9609 2.21071 17.5858 2.58579C17.2107 2.96086 17 3.46957 17 4V18.586L22.292 13.292C22.4798 13.1042 22.7344 12.9987 23 12.9987C23.2656 12.9987 23.5202 13.1042 23.708 13.292C23.8958 13.4798 24.0013 13.7344 24.0013 14C24.0013 14.2656 23.8958 14.5202 23.708 14.708L16.708 21.708C16.6151 21.8011 16.5048 21.875 16.3833 21.9254C16.2618 21.9758 16.1315 22.0018 16 22.0018C15.8685 22.0018 15.7382 21.9758 15.6167 21.9254C15.4952 21.875 15.3849 21.8011 15.292 21.708L8.292 14.708C8.19902 14.615 8.12527 14.5046 8.07495 14.3832C8.02463 14.2617 7.99874 14.1315 7.99874 14C7.99874 13.8685 8.02463 13.7383 8.07495 13.6168C8.12527 13.4954 8.19902 13.385 8.292 13.292C8.38498 13.199 8.49535 13.1253 8.61683 13.075C8.73831 13.0246 8.86851 12.9987 9 12.9987C9.13149 12.9987 9.26169 13.0246 9.38317 13.075C9.50465 13.1253 9.61502 13.199 9.708 13.292L15 18.586V4C15 2.93913 15.4214 1.92172 16.1716 1.17157C16.9217 0.421427 17.9391 0 19 0L28 0C29.0609 0 30.0783 0.421427 30.8284 1.17157C31.5786 1.92172 32 2.93913 32 4V28C32 29.0609 31.5786 30.0783 30.8284 30.8284C30.0783 31.5786 29.0609 32 28 32H4C2.93913 32 1.92172 31.5786 1.17157 30.8284C0.421427 30.0783 0 29.0609 0 28V4C0 2.93913 0.421427 1.92172 1.17157 1.17157C1.92172 0.421427 2.93913 0 4 0L9 0C9.26522 0 9.51957 0.105357 9.70711 0.292893C9.89464 0.48043 10 0.734784 10 1C10 1.26522 9.89464 1.51957 9.70711 1.70711C9.51957 1.89464 9.26522 2 9 2H4Z" fill="#F8F8F8"/>
  </symbol>
  <symbol viewBox="0 0 36 36" fill="none" xmlns="http://www.w3.org/2000/svg" id="apply">
    <path d="M18 0C8.0589 0 0 8.0589 0 18C0 27.9411 8.0589 36 18 36C27.9411 36 36 27.9411 36 18C36 8.0589 27.9411 0 18 0ZM18 3.91113C25.7811 3.91113 32.0867 10.2209 32.0867 18C32.0867 25.7791 25.7811 32.0867 18 32.0867C10.2189 32.0867 3.91332 25.7791 3.91332 18C3.91335 10.2209 10.2189 3.91113 18 3.91113ZM24.8972 9.45264L14.4646 19.8874L11.0808 16.5037L7.76073 19.8215L11.1445 23.2053L14.4865 26.5474L17.8045 23.2273L28.2392 12.7947L24.8972 9.45264V9.45264Z" fill="#F8F8F8"/>
  </symbol>
  <symbol viewBox="0 0 38 38" fill="none" xmlns="http://www.w3.org/2000/svg" id="cancel">
    <path d="M24.4 24.4016L13.6 13.6016M24.4 13.6016L13.6 24.4016" stroke="#F8F8F8" stroke-width="2" stroke-linecap="round"/>
    <path d="M19 37C28.9411 37 37 28.9411 37 19C37 9.05887 28.9411 1 19 1C9.05887 1 1 9.05887 1 19C1 28.9411 9.05887 37 19 37Z" stroke="#F8F8F8" stroke-width="2"/>
  </symbol>
  <symbol viewBox="0 0 23 12" fill="none" xmlns="http://www.w3.org/2000/svg" id="check">
    <path d="M1.01245 6L6.29516 11L8.93652 8M7.04983 6L12.3325 11L21.1371 1M15.0997 1L11.5779 5" stroke="#F8F8F8" stroke-width="2" stroke-linecap="round" stroke-linejoin="round"/>
  </symbol>

  <symbol viewBox="0 0 16 16" fill="none" xmlns="http://www.w3.org/2000/svg" id="pdf">
    <path d="M4.5 9.00295C4.36739 9.00295 4.24022 9.05563 4.14645 9.1494C4.05268 9.24317 4 9.37035 4 9.50295V11.503C4 11.6356 4.05268 11.7627 4.14645 11.8565C4.24022 11.9503 4.36739 12.003 4.5 12.003C4.63261 12.003 4.75979 11.9503 4.85355 11.8565C4.94732 11.7627 5 11.6356 5 11.503V11.337H5.333C5.64251 11.337 5.93934 11.214 6.15819 10.9951C6.37705 10.7763 6.5 10.4795 6.5 10.17C6.5 9.86045 6.37705 9.56361 6.15819 9.34476C5.93934 9.1259 5.64251 9.00295 5.333 9.00295H4.5ZM5.333 10.337H5V10.003H5.333C5.37729 10.003 5.41977 10.0205 5.45109 10.0519C5.48241 10.0832 5.5 10.1257 5.5 10.17C5.5 10.2142 5.48241 10.2567 5.45109 10.288C5.41977 10.3194 5.37729 10.337 5.333 10.337V10.337ZM10.001 9.50195C10.0013 9.36952 10.0541 9.2426 10.1478 9.14905C10.2415 9.05549 10.3686 9.00295 10.501 9.00295H11.499C11.6316 9.00295 11.7588 9.05563 11.8526 9.1494C11.9463 9.24317 11.999 9.37035 11.999 9.50295C11.999 9.63556 11.9463 9.76274 11.8526 9.85651C11.7588 9.95027 11.6316 10.003 11.499 10.003H10.999V10.338H11.499C11.6316 10.338 11.7588 10.3906 11.8526 10.4844C11.9463 10.5782 11.999 10.7053 11.999 10.838C11.999 10.9706 11.9463 11.0977 11.8526 11.1915C11.7588 11.2853 11.6316 11.338 11.499 11.338H11V11.502C11.0001 11.5676 10.9873 11.6327 10.9623 11.6934C10.9373 11.7541 10.9006 11.8093 10.8543 11.8558C10.7607 11.9498 10.6336 12.0027 10.501 12.003C10.3684 12.0032 10.2411 11.9508 10.1472 11.8572C10.0532 11.7636 10.0003 11.6366 10 11.504V9.50195H10.001ZM7.498 9.00295C7.36539 9.00295 7.23822 9.05563 7.14445 9.1494C7.05068 9.24317 6.998 9.37035 6.998 9.50295V11.503C6.998 11.6356 7.05068 11.7627 7.14445 11.8565C7.23822 11.9503 7.36539 12.003 7.498 12.003H8C8.39783 12.003 8.77936 11.8449 9.06066 11.5636C9.34197 11.2823 9.5 10.9008 9.5 10.503C9.5 10.1051 9.34197 9.7236 9.06066 9.44229C8.77936 9.16099 8.39783 9.00295 8 9.00295H7.498V9.00295ZM7.998 11.003V10.003H8C8.13261 10.003 8.25979 10.0556 8.35355 10.1494C8.44732 10.2432 8.5 10.3703 8.5 10.503C8.5 10.6356 8.44732 10.7627 8.35355 10.8565C8.25979 10.9503 8.13261 11.003 8 11.003H7.998V11.003ZM3 3.50195V7.08395C2.70726 7.18745 2.45385 7.37924 2.27474 7.63287C2.09563 7.8865 1.99963 8.18946 2 8.49995V12.503C2 12.9008 2.15804 13.2823 2.43934 13.5636C2.72065 13.8449 3.10218 14.003 3.5 14.003H12.5C12.8978 14.003 13.2794 13.8449 13.5607 13.5636C13.842 13.2823 14 12.9008 14 12.503V8.49895C14.0002 8.18863 13.9041 7.88589 13.725 7.63246C13.5459 7.37904 13.2926 7.18739 13 7.08395V5.41395C13.0002 5.21653 12.9615 5.02101 12.886 4.83859C12.8105 4.65618 12.6997 4.49046 12.56 4.35095L10.644 2.44095C10.3628 2.15993 9.98155 2.00204 9.584 2.00195H4.5C4.10218 2.00195 3.72065 2.15999 3.43934 2.44129C3.15804 2.7226 3 3.10413 3 3.50195V3.50195ZM4.5 3.00195H9V4.49995C9 4.89778 9.15804 5.27931 9.43934 5.56061C9.72065 5.84192 10.1022 5.99995 10.5 5.99995H12V6.99895H4V3.50195C4 3.36934 4.05268 3.24217 4.14645 3.1484C4.24022 3.05463 4.36739 3.00195 4.5 3.00195V3.00195ZM10 3.20995L11.794 4.99995H10.5C10.3674 4.99995 10.2402 4.94727 10.1464 4.85351C10.0527 4.75974 10 4.63256 10 4.49995V3.20995ZM3.5 7.99995H12.5C12.6326 7.99995 12.7598 8.05263 12.8536 8.1464C12.9473 8.24017 13 8.36735 13 8.49995V12.503C13 12.6356 12.9473 12.7627 12.8536 12.8565C12.7598 12.9503 12.6326 13.003 12.5 13.003H3.5C3.36739 13.003 3.24022 12.9503 3.14645 12.8565C3.05268 12.7627 3 12.6356 3 12.503V8.49895C3 8.36634 3.05268 8.23917 3.14645 8.1454C3.24022 8.05163 3.36739 7.99895 3.5 7.99895V7.99995Z" fill="#F8F8F8"/>
  </symbol>

  <symbol viewBox="0 0 12 12" fill="none" xmlns="http://www.w3.org/2000/svg" id="print">
    <path d="M8.24831 0C8.42554 0 8.60102 0.0387987 8.76475 0.114181C8.92849 0.189563 9.07726 0.300052 9.20257 0.43934C9.32789 0.578628 9.42729 0.743986 9.49511 0.925975C9.56293 1.10796 9.59784 1.30302 9.59784 1.5V2.002H10.0477C10.5647 2.00235 11.0604 2.2307 11.4261 2.63691C11.7918 3.04312 11.9976 3.59402 11.9982 4.16867L12 8.16667C12.0001 8.36356 11.9653 8.55855 11.8975 8.74049C11.8298 8.92243 11.7305 9.08776 11.6053 9.22705C11.4801 9.36634 11.3315 9.47685 11.1678 9.55228C11.0042 9.62771 10.8288 9.66658 10.6517 9.66667H9.59664V10.5C9.59664 10.8978 9.45446 11.2794 9.20137 11.5607C8.94829 11.842 8.60503 12 8.24711 12H3.74869C3.39077 12 3.04751 11.842 2.79443 11.5607C2.54134 11.2794 2.39916 10.8978 2.39916 10.5V9.66667H1.34953C0.991611 9.66667 0.648353 9.50863 0.395267 9.22733C0.142182 8.94602 0 8.56449 0 8.16667V4.16933C0 3.5947 0.205374 3.0436 0.570942 2.63727C0.93651 2.23094 1.43233 2.00267 1.94932 2.00267L2.39856 2.002L2.39916 1.5C2.39916 1.10218 2.54134 0.720644 2.79443 0.43934C3.04751 0.158035 3.39077 0 3.74869 0H8.24831V0ZM8.24711 7H3.74869C3.62938 7 3.51496 7.05268 3.4306 7.14645C3.34624 7.24022 3.29885 7.36739 3.29885 7.5V10.5C3.29885 10.776 3.50037 11 3.74869 11H8.24711C8.36642 11 8.48084 10.9473 8.5652 10.8536C8.64956 10.7598 8.69696 10.6326 8.69696 10.5V7.5C8.69696 7.36739 8.64956 7.24022 8.5652 7.14645C8.48084 7.05268 8.36642 7 8.24711 7V7ZM10.0477 3.00267H1.94932C1.67094 3.00267 1.40396 3.12558 1.20712 3.34438C1.01027 3.56317 0.899685 3.85991 0.899685 4.16933V8.16667C0.899685 8.44267 1.10121 8.66667 1.34953 8.66667H2.39916V7.5C2.39916 7.10218 2.54134 6.72064 2.79443 6.43934C3.04751 6.15804 3.39077 6 3.74869 6H8.24711C8.60503 6 8.94829 6.15804 9.20137 6.43934C9.45446 6.72064 9.59664 7.10218 9.59664 7.5V8.66667H10.6661C10.7826 8.66234 10.893 8.60783 10.9741 8.51465C11.0551 8.42147 11.1004 8.29693 11.1003 8.16733L11.0985 4.16933C11.0979 3.8599 10.9869 3.56336 10.79 3.34468C10.593 3.12601 10.3261 3.00302 10.0477 3.00267V3.00267ZM8.24831 1H3.74869C3.62938 1 3.51496 1.05268 3.4306 1.14645C3.34624 1.24021 3.29885 1.36739 3.29885 1.5L3.29825 2.002H8.69816V1.5C8.69816 1.36739 8.65076 1.24021 8.5664 1.14645C8.48204 1.05268 8.36762 1 8.24831 1V1Z" fill="#F8F8F8"/>
  </symbol>

  <symbol viewBox="0 0 15 15" fill="none" xmlns="http://www.w3.org/2000/svg" id="return">
    <path d="M4.375 11.875C5.06536 11.875 5.625 11.3154 5.625 10.625C5.625 9.93464 5.06536 9.375 4.375 9.375C3.68464 9.375 3.125 9.93464 3.125 10.625C3.125 11.3154 3.68464 11.875 4.375 11.875Z" stroke="#F8F8F8" stroke-width="2" stroke-linecap="round" stroke-linejoin="round"/>
    <path d="M10.625 11.875C11.3154 11.875 11.875 11.3154 11.875 10.625C11.875 9.93464 11.3154 9.375 10.625 9.375C9.93464 9.375 9.375 9.93464 9.375 10.625C9.375 11.3154 9.93464 11.875 10.625 11.875Z" stroke="#F8F8F8" stroke-width="2" stroke-linecap="round" stroke-linejoin="round"/>
    <path d="M3.125 10.625H1.875V3.75C1.875 3.58424 1.94085 3.42527 2.05806 3.30806C2.17527 3.19085 2.33424 3.125 2.5 3.125H8.125V6.875H5L6.25 8.125M6.25 5.625L5 6.875M5.625 10.625H9.375M8.125 3.75H11.25L13.125 6.875V10.625H11.875" stroke="#F8F8F8" stroke-width="2" stroke-linecap="round" stroke-linejoin="round"/>
  </symbol>

  <symbol viewBox="0 0 16 16" fill="none" xmlns="http://www.w3.org/2000/svg" id="excel">
    <path d="M13.3531 4.50938L9.99063 1.14688C9.89688 1.05313 9.77031 1 9.6375 1H3C2.72344 1 2.5 1.22344 2.5 1.5V14.5C2.5 14.7766 2.72344 15 3 15H13C13.2766 15 13.5 14.7766 13.5 14.5V4.86406C13.5 4.73125 13.4469 4.60313 13.3531 4.50938ZM12.3469 5.09375H9.40625V2.15313L12.3469 5.09375ZM12.375 13.875H3.625V2.125H8.34375V5.5C8.34375 5.67405 8.41289 5.84097 8.53596 5.96404C8.65903 6.08711 8.82595 6.15625 9 6.15625H12.375V13.875ZM8.03281 9.06406L7.06719 7.46406C7.03281 7.40781 6.97187 7.37344 6.90625 7.37344H6.30625C6.27031 7.37344 6.23594 7.38281 6.20625 7.40312C6.11875 7.45781 6.09219 7.57344 6.14844 7.6625L7.43437 9.7L6.13125 11.775C6.11354 11.8035 6.10376 11.8361 6.10292 11.8696C6.10208 11.9031 6.1102 11.9363 6.12645 11.9656C6.1427 11.9949 6.16649 12.0193 6.19535 12.0364C6.22422 12.0534 6.25711 12.0624 6.29063 12.0625H6.82969C6.89531 12.0625 6.95469 12.0281 6.98906 11.9734L7.96875 10.3875L8.94219 11.9719C8.97656 12.0281 9.0375 12.0609 9.10156 12.0609H9.6875C9.72344 12.0609 9.75781 12.05 9.78906 12.0312C9.87656 11.975 9.90156 11.8594 9.84531 11.7719L8.53281 9.73438L9.86563 7.66406C9.88367 7.63569 9.89377 7.60299 9.89489 7.56939C9.89601 7.53578 9.88811 7.50249 9.87199 7.47298C9.85588 7.44346 9.83215 7.41881 9.80328 7.40158C9.7744 7.38434 9.74144 7.37517 9.70781 7.375H9.15C9.08437 7.375 9.02344 7.40937 8.98906 7.46562L8.03281 9.06406V9.06406Z" fill="#F8F8F8"/>
  </symbol>

  <symbol viewBox="0 0 18 18" fill="none" xmlns="http://www.w3.org/2000/svg" id="filter">
      <path d="M6 10.5C6 10.3674 6.05268 10.2402 6.14645 10.1464C6.24021 10.0527 6.36739 10 6.5 10H9.5C9.63261 10 9.75979 10.0527 9.85355 10.1464C9.94732 10.2402 10 10.3674 10 10.5C10 10.6326 9.94732 10.7598 9.85355 10.8536C9.75979 10.9473 9.63261 11 9.5 11H6.5C6.36739 11 6.24021 10.9473 6.14645 10.8536C6.05268 10.7598 6 10.6326 6 10.5ZM4 7.5C4 7.36739 4.05268 7.24021 4.14645 7.14645C4.24021 7.05268 4.36739 7 4.5 7H11.5C11.6326 7 11.7598 7.05268 11.8536 7.14645C11.9473 7.24021 12 7.36739 12 7.5C12 7.63261 11.9473 7.75979 11.8536 7.85355C11.7598 7.94732 11.6326 8 11.5 8H4.5C4.36739 8 4.24021 7.94732 4.14645 7.85355C4.05268 7.75979 4 7.63261 4 7.5ZM2 4.5C2 4.36739 2.05268 4.24021 2.14645 4.14645C2.24021 4.05268 2.36739 4 2.5 4H13.5C13.6326 4 13.7598 4.05268 13.8536 4.14645C13.9473 4.24021 14 4.36739 14 4.5C14 4.63261 13.9473 4.75979 13.8536 4.85355C13.7598 4.94732 13.6326 5 13.5 5H2.5C2.36739 5 2.24021 4.94732 2.14645 4.85355C2.05268 4.75979 2 4.63261 2 4.5Z" fill="#F8F8F8"/>
  </symbol>

  <symbol viewBox="0 0 10 14" fill="none" xmlns="http://www.w3.org/2000/svg" id="record">
    <path fill-rule="evenodd" clip-rule="evenodd" d="M3.5 0C3.23478 0 2.98043 0.105357 2.79289 0.292893C2.60536 0.48043 2.5 0.734784 2.5 1H1C0.734784 1 0.48043 1.10536 0.292893 1.29289C0.105357 1.48043 0 1.73478 0 2V13C0 13.2652 0.105357 13.5196 0.292893 13.7071C0.48043 13.8946 0.734784 14 1 14H9C9.26522 14 9.51957 13.8946 9.70711 13.7071C9.89464 13.5196 10 13.2652 10 13V2C10 1.73478 9.89464 1.48043 9.70711 1.29289C9.51957 1.10536 9.26522 1 9 1H7.5C7.5 0.734784 7.39464 0.48043 7.20711 0.292893C7.01957 0.105357 6.76522 0 6.5 0H3.5ZM3.5 1H6.5V2H3.5V1ZM5.2785 9L4.032 12.3245C4.0069 12.3864 3.99446 12.4527 3.99539 12.5194C3.99633 12.5862 4.01063 12.6521 4.03746 12.7133C4.06428 12.7744 4.10308 12.8296 4.15157 12.8755C4.20006 12.9214 4.25726 12.9571 4.31978 12.9806C4.38231 13.004 4.4489 13.0147 4.51562 13.012C4.58234 13.0093 4.64784 12.9932 4.70826 12.9648C4.76868 12.9364 4.82279 12.8961 4.8674 12.8464C4.91201 12.7967 4.94622 12.7386 4.968 12.6755L5.5975 10.998H6.9025L7.532 12.6755C7.55378 12.7386 7.58799 12.7967 7.6326 12.8464C7.67721 12.8961 7.73132 12.9364 7.79174 12.9648C7.85216 12.9932 7.91766 13.0093 7.98438 13.012C8.0511 13.0147 8.11769 13.004 8.18022 12.9806C8.24274 12.9571 8.29994 12.9214 8.34843 12.8755C8.39692 12.8296 8.43572 12.7744 8.46254 12.7133C8.48937 12.6521 8.50367 12.5862 8.50461 12.5194C8.50554 12.4527 8.4931 12.3864 8.468 12.3245L7.222 9H8.651C8.78361 9 8.91078 8.94732 9.00455 8.85355C9.09832 8.75979 9.151 8.63261 9.151 8.5C9.151 8.36739 9.09832 8.24021 9.00455 8.14645C8.91078 8.05268 8.78361 8 8.651 8H3.501C3.36839 8 3.24121 8.05268 3.14745 8.14645C3.05368 8.24021 3.001 8.36739 3.001 8.5C3.001 8.63261 3.05368 8.75979 3.14745 8.85355C3.24121 8.94732 3.36839 9 3.501 9H5.279H5.2785ZM8.5 4.62H1.5V3.62H8.5V4.62ZM1.5 6.7H4V5.7H1.5V6.7ZM7.25 6.5C7.25 6.76522 7.14464 7.01957 6.95711 7.20711C6.76957 7.39464 6.51522 7.5 6.25 7.5C5.98478 7.5 5.73043 7.39464 5.54289 7.20711C5.35536 7.01957 5.25 6.76522 5.25 6.5C5.25 6.23478 5.35536 5.98043 5.54289 5.79289C5.73043 5.60536 5.98478 5.5 6.25 5.5C6.51522 5.5 6.76957 5.60536 6.95711 5.79289C7.14464 5.98043 7.25 6.23478 7.25 6.5V6.5Z" fill="#F8F8F8"/>
  </symbol>

  <symbol viewBox="0 0 36 36" fill="none" xmlns="http://www.w3.org/2000/svg" id="queue_ok">
    <path d="M24.5742 12.4102H22.9253C22.5668 12.4102 22.2257 12.5824 22.0148 12.8777L16.4882 20.5418L13.9851 17.0684C13.7742 16.7766 13.4367 16.6008 13.0746 16.6008H11.4257C11.1972 16.6008 11.0636 16.8609 11.1972 17.0473L15.5777 23.1223C15.6812 23.2667 15.8176 23.3844 15.9756 23.4656C16.1337 23.5468 16.3088 23.5891 16.4865 23.5891C16.6642 23.5891 16.8393 23.5468 16.9973 23.4656C17.1554 23.3844 17.2918 23.2667 17.3953 23.1223L24.7992 12.8566C24.9363 12.6703 24.8027 12.4102 24.5742 12.4102V12.4102Z" fill="#F8F8F8"/>
    <path d="M18 2.25C9.30234 2.25 2.25 9.30234 2.25 18C2.25 26.6977 9.30234 33.75 18 33.75C26.6977 33.75 33.75 26.6977 33.75 18C33.75 9.30234 26.6977 2.25 18 2.25ZM18 31.0781C10.7789 31.0781 4.92188 25.2211 4.92188 18C4.92188 10.7789 10.7789 4.92188 18 4.92188C25.2211 4.92188 31.0781 10.7789 31.0781 18C31.0781 25.2211 25.2211 31.0781 18 31.0781Z" fill="#F8F8F8"/>
  </symbol>

  <symbol viewBox="0 0 36 36" fill="none" xmlns="http://www.w3.org/2000/svg" id="call">
    <path d="M19.5 12C20.6935 12 21.8381 12.4741 22.682 13.318C23.5259 14.1619 24 15.3065 24 16.5C24 16.8978 24.158 17.2794 24.4393 17.5607C24.7206 17.842 25.1022 18 25.5 18C25.8978 18 26.2794 17.842 26.5607 17.5607C26.842 17.2794 27 16.8978 27 16.5C27 14.5109 26.2098 12.6032 24.8033 11.1967C23.3968 9.79018 21.4891 9 19.5 9C19.1022 9 18.7206 9.15804 18.4393 9.43934C18.158 9.72064 18 10.1022 18 10.5C18 10.8978 18.158 11.2794 18.4393 11.5607C18.7206 11.842 19.1022 12 19.5 12V12Z" fill="#F8F8F8"/>
    <path d="M19.5 6C22.2848 6 24.9555 7.10625 26.9246 9.07538C28.8938 11.0445 30 13.7152 30 16.5C30 16.8978 30.158 17.2794 30.4393 17.5607C30.7206 17.842 31.1022 18 31.5 18C31.8978 18 32.2794 17.842 32.5607 17.5607C32.842 17.2794 33 16.8978 33 16.5C33 12.9196 31.5777 9.4858 29.0459 6.95406C26.5142 4.42232 23.0804 3 19.5 3C19.1022 3 18.7206 3.15804 18.4393 3.43934C18.158 3.72064 18 4.10218 18 4.5C18 4.89782 18.158 5.27936 18.4393 5.56066C18.7206 5.84196 19.1022 6 19.5 6V6ZM32.625 23.865C32.5425 23.6242 32.4001 23.4084 32.2111 23.2378C32.0222 23.0672 31.793 22.9475 31.545 22.89L22.545 20.835C22.3007 20.7796 22.0464 20.7863 21.8054 20.8544C21.5643 20.9225 21.3442 21.0499 21.165 21.225C20.955 21.42 20.94 21.435 19.965 23.295C16.7298 21.8042 14.1375 19.2013 12.66 15.96C14.565 15 14.58 15 14.775 14.775C14.9501 14.5958 15.0775 14.3757 15.1456 14.1346C15.2137 13.8936 15.2204 13.6393 15.165 13.395L13.11 4.5C13.0525 4.25204 12.9328 4.02281 12.7622 3.83387C12.5916 3.64493 12.3758 3.5025 12.135 3.42C11.7847 3.29488 11.423 3.20445 11.055 3.15C10.6759 3.06209 10.289 3.01185 9.9 3C8.07001 3 6.31496 3.72696 5.02096 5.02096C3.72696 6.31496 3 8.07001 3 9.9C3.00794 16.0241 5.44423 21.895 9.7746 26.2254C14.105 30.5558 19.9759 32.9921 26.1 33C27.0061 33 27.9034 32.8215 28.7405 32.4748C29.5777 32.128 30.3383 31.6198 30.979 30.979C31.6198 30.3383 32.128 29.5777 32.4748 28.7405C32.8215 27.9034 33 27.0061 33 26.1C33.0005 25.7182 32.9704 25.337 32.91 24.96C32.847 24.5874 32.7516 24.221 32.625 23.865V23.865ZM26.1 30C20.7704 29.996 15.6602 27.8771 11.8915 24.1085C8.12292 20.3398 6.00397 15.2296 6 9.9C6.00395 8.86687 6.41611 7.87719 7.14665 7.14665C7.87719 6.41611 8.86687 6.00395 9.9 6H10.395L12 12.96L11.19 13.38C9.9 14.055 8.88 14.595 9.42 15.765C10.2993 18.2544 11.7222 20.5166 13.5851 22.3873C15.448 24.258 17.7043 25.6903 20.19 26.58C21.45 27.09 21.945 26.145 22.62 24.84L23.055 24.015L30 25.605V26.1C29.996 27.1331 29.5839 28.1228 28.8534 28.8534C28.1228 29.5839 27.1331 29.996 26.1 30V30Z" fill="#F8F8F8"/>
  </symbol>
  
  <symbol viewBox="0 0 10 12" fill="none" xmlns="http://www.w3.org/2000/svg" id="sort">
    <path d="M5.98002 3.01997C6.07377 3.1136 6.20085 3.16619 6.33335 3.16619C6.46585 3.16619 6.59294 3.1136 6.68669 3.01997L7.16669 2.53997V9.3333C7.16669 9.46591 7.21937 9.59309 7.31313 9.68685C7.4069 9.78062 7.53408 9.8333 7.66669 9.8333C7.7993 9.8333 7.92647 9.78062 8.02024 9.68685C8.11401 9.59309 8.16669 9.46591 8.16669 9.3333V2.53997L8.64669 3.01997C8.69246 3.06909 8.74766 3.10849 8.809 3.13582C8.87033 3.16315 8.93654 3.17784 9.00367 3.17903C9.07081 3.18021 9.13749 3.16786 9.19975 3.14272C9.26201 3.11757 9.31857 3.08014 9.36605 3.03266C9.41353 2.98518 9.45096 2.92862 9.4761 2.86637C9.50125 2.80411 9.5136 2.73742 9.51242 2.67029C9.51123 2.60315 9.49654 2.53694 9.46921 2.47561C9.44188 2.41428 9.40248 2.35907 9.35336 2.3133L8.02002 0.979967C7.92627 0.886333 7.79919 0.83374 7.66669 0.83374C7.53419 0.83374 7.4071 0.886333 7.31335 0.979967L5.98002 2.3133C5.88639 2.40705 5.83379 2.53413 5.83379 2.66663C5.83379 2.79913 5.88639 2.92622 5.98002 3.01997ZM2.83335 9.45997L3.31335 8.97997C3.35913 8.93084 3.41433 8.89144 3.47566 8.86411C3.537 8.83679 3.6032 8.82209 3.67034 8.82091C3.73747 8.81972 3.80416 8.83207 3.86642 8.85722C3.92868 8.88237 3.98523 8.9198 4.03271 8.96728C4.08019 9.01475 4.11762 9.07131 4.14277 9.13357C4.16792 9.19583 4.18027 9.26251 4.17908 9.32965C4.1779 9.39678 4.1632 9.46299 4.13588 9.52433C4.10855 9.58566 4.06915 9.64086 4.02002 9.68663L2.68669 11.02C2.59294 11.1136 2.46585 11.1662 2.33335 11.1662C2.20085 11.1662 2.07377 11.1136 1.98002 11.02L0.646687 9.68663C0.597563 9.64086 0.558161 9.58566 0.530833 9.52433C0.503506 9.46299 0.488811 9.39678 0.487627 9.32965C0.486442 9.26251 0.498792 9.19583 0.523939 9.13357C0.549086 9.07131 0.586516 9.01475 0.633995 8.96728C0.681474 8.9198 0.73803 8.88237 0.800289 8.85722C0.862548 8.83207 0.929234 8.81972 0.996369 8.82091C1.0635 8.82209 1.12971 8.83679 1.19105 8.86411C1.25238 8.89144 1.30758 8.93084 1.35335 8.97997L1.83335 9.45997V2.66663C1.83335 2.53403 1.88603 2.40685 1.9798 2.31308C2.07357 2.21931 2.20075 2.16663 2.33335 2.16663C2.46596 2.16663 2.59314 2.21931 2.68691 2.31308C2.78068 2.40685 2.83335 2.53403 2.83335 2.66663V9.45997Z" fill="white"/>
  </symbol>


</svg>