<svg width="0" height="0" class="hidden">

    <symbol viewBox="0 0 18 18" fill="none" xmlns="http://www.w3.org/2000/svg" id="ic_management_class">
        <path d="M17.3571 12.6H11.5714C11.4009 12.6 11.2374 12.6632 11.1169 12.7757C10.9963 12.8883 10.9286 13.0409 10.9286 13.2C10.9286 13.6774 10.7254 14.1352 10.3637 14.4728C10.002 14.8104 9.51149 15 9 15C8.48851 15 7.99797 14.8104 7.63629 14.4728C7.27462 14.1352 7.07143 13.6774 7.07143 13.2C7.07143 13.0409 7.0037 12.8883 6.88314 12.7757C6.76258 12.6632 6.59907 12.6 6.42857 12.6H0.642857C0.472361 12.6 0.308848 12.6632 0.188289 12.7757C0.0677295 12.8883 1.64443e-07 13.0409 1.64443e-07 13.2V15.6C0.000744615 16.2363 0.271901 16.8464 0.753976 17.2963C1.23605 17.7462 1.88967 17.9993 2.57143 18H15.4286C16.1103 17.9993 16.7639 17.7462 17.246 17.2963C17.7281 16.8464 17.9993 16.2363 18 15.6V13.2C18 13.0409 17.9323 12.8883 17.8117 12.7757C17.6912 12.6632 17.5276 12.6 17.3571 12.6ZM17.9783 6.4455L16.6986 1.96687C16.4439 0.734625 15.4904 0 14.1429 0H3.85714C3.18214 0 2.61161 0.175875 2.16563 0.52275C1.71964 0.869625 1.43277 1.35 1.30179 1.965L0.0216966 6.4455C0.00725452 6.49589 -3.99369e-05 6.54784 1.64443e-07 6.6V8.4C1.64443e-07 9.72338 1.15353 11.4 2.57143 11.4H15.4286C16.8465 11.4 18 9.72338 18 8.4V6.6C18 6.54784 17.9927 6.49589 17.9783 6.4455ZM16.4158 6H11.5714C11.4019 5.9992 11.239 6.06123 11.1185 6.17247C10.9979 6.2837 10.9296 6.43505 10.9286 6.59325C10.9286 7.07064 10.7254 7.52848 10.3637 7.86604C10.002 8.20361 9.51149 8.39325 9 8.39325C8.48851 8.39325 7.99797 8.20361 7.63629 7.86604C7.27462 7.52848 7.07143 7.07064 7.07143 6.59325C7.07037 6.43505 7.00206 6.2837 6.88153 6.17247C6.76099 6.06123 6.59808 5.9992 6.42857 6H1.58424C1.57191 5.99999 1.55975 5.99734 1.54869 5.99224C1.53764 5.98714 1.52799 5.97974 1.52049 5.9706C1.513 5.96147 1.50785 5.95084 1.50546 5.93955C1.50307 5.92826 1.50349 5.91661 1.5067 5.9055L2.55978 2.2125C2.70241 1.52213 3.11464 1.2 3.85714 1.2H14.1429C14.8898 1.2 15.3016 1.51988 15.4386 2.20688L16.4933 5.9055C16.4965 5.91661 16.4969 5.92826 16.4945 5.93955C16.4921 5.95084 16.487 5.96147 16.4795 5.9706C16.472 5.97974 16.4624 5.98714 16.4513 5.99224C16.4403 5.99734 16.4281 5.99999 16.4158 6Z" fill="white"/>
    </symbol>

  <symbol viewBox="0 0 18 18" fill="none" xmlns="http://www.w3.org/2000/svg" id="ic_home">
    <path d="M1 6.6L9 1L17 6.6V15.4C17 15.8243 16.8127 16.2313 16.4793 16.5314C16.1459 16.8314 15.6937 17 15.2222 17H2.77778C2.30628 17 1.8541 16.8314 1.5207 16.5314C1.1873 16.2313 1 15.8243 1 15.4V6.6Z" stroke="white" stroke-linecap="round" stroke-linejoin="round"/>
    <path d="M6.33337 17V9H11.6667V17" stroke="white" stroke-linecap="round" stroke-linejoin="round"/>
  </symbol>

 
<symbol viewBox="0 0 18 18" fill="none" xmlns="http://www.w3.org/2000/svg" id="ic_business">
<path d="M15.1875 6.1875H11.25V2.25C11.25 1.80245 11.0722 1.37322 10.7557 1.05676C10.4393 0.74029 10.0101 0.5625 9.5625 0.5625H2.8125C2.36495 0.5625 1.93572 0.74029 1.61926 1.05676C1.30279 1.37322 1.125 1.80245 1.125 2.25V16.875C1.125 17.0242 1.18426 17.1673 1.28975 17.2727C1.39524 17.3782 1.53832 17.4375 1.6875 17.4375H5.34375C5.41834 17.4375 5.48988 17.4079 5.54262 17.3551C5.59537 17.3024 5.625 17.2308 5.625 17.1562V14.6408C5.625 14.3381 5.85773 14.0783 6.16043 14.0632C6.23648 14.0595 6.31249 14.0714 6.38385 14.0979C6.4552 14.1245 6.52042 14.1653 6.57554 14.2178C6.63066 14.2704 6.67455 14.3335 6.70454 14.4035C6.73453 14.4735 6.74999 14.5489 6.75 14.625V17.1562C6.75 17.2308 6.77963 17.3024 6.83238 17.3551C6.88512 17.4079 6.95666 17.4375 7.03125 17.4375H16.3125C16.4617 17.4375 16.6048 17.3782 16.7102 17.2727C16.8157 17.1673 16.875 17.0242 16.875 16.875V7.875C16.875 7.42745 16.6972 6.99822 16.3807 6.68176C16.0643 6.36529 15.6351 6.1875 15.1875 6.1875ZM3.44813 15.1829C3.33163 15.1982 3.21328 15.1765 3.1097 15.1211C3.00612 15.0656 2.9225 14.9791 2.87058 14.8738C2.81866 14.7684 2.80105 14.6493 2.82021 14.5334C2.83938 14.4175 2.89435 14.3105 2.97743 14.2274C3.06051 14.1444 3.16752 14.0894 3.28343 14.0702C3.39935 14.051 3.51836 14.0687 3.62375 14.1206C3.72915 14.1725 3.81564 14.2561 3.87109 14.3597C3.92654 14.4633 3.94817 14.5816 3.93293 14.6981C3.91685 14.8211 3.8606 14.9353 3.77293 15.0229C3.68525 15.1106 3.57107 15.1669 3.44813 15.1829ZM3.44813 12.3704C3.33163 12.3857 3.21328 12.364 3.1097 12.3086C3.00612 12.2531 2.9225 12.1666 2.87058 12.0613C2.81866 11.9559 2.80105 11.8368 2.82021 11.7209C2.83938 11.605 2.89435 11.498 2.97743 11.4149C3.06051 11.3319 3.16752 11.2769 3.28343 11.2577C3.39935 11.2385 3.51836 11.2562 3.62375 11.3081C3.72915 11.36 3.81564 11.4436 3.87109 11.5472C3.92654 11.6508 3.94817 11.7691 3.93293 11.8856C3.91685 12.0086 3.8606 12.1228 3.77293 12.2104C3.68525 12.2981 3.57107 12.3544 3.44813 12.3704ZM3.44813 9.55793C3.33163 9.57317 3.21328 9.55154 3.1097 9.49609C3.00612 9.44064 2.9225 9.35415 2.87058 9.24875C2.81866 9.14336 2.80105 9.02435 2.82021 8.90843C2.83938 8.79252 2.89435 8.68551 2.97743 8.60243C3.06051 8.51935 3.16752 8.46438 3.28343 8.44521C3.39935 8.42605 3.51836 8.44366 3.62375 8.49558C3.72915 8.5475 3.81564 8.63112 3.87109 8.7347C3.92654 8.83828 3.94817 8.95663 3.93293 9.07312C3.91685 9.19607 3.8606 9.31025 3.77293 9.39793C3.68525 9.4856 3.57107 9.54185 3.44813 9.55793ZM3.44813 6.74543C3.33163 6.76067 3.21328 6.73904 3.1097 6.68359C3.00612 6.62814 2.9225 6.54165 2.87058 6.43625C2.81866 6.33086 2.80105 6.21185 2.82021 6.09593C2.83938 5.98002 2.89435 5.87301 2.97743 5.78993C3.06051 5.70685 3.16752 5.65188 3.28343 5.63271C3.39935 5.61355 3.51836 5.63116 3.62375 5.68308C3.72915 5.735 3.81564 5.81862 3.87109 5.9222C3.92654 6.02578 3.94817 6.14413 3.93293 6.26063C3.91685 6.38357 3.8606 6.49775 3.77293 6.58543C3.68525 6.6731 3.57107 6.72935 3.44813 6.74543ZM3.44813 3.93293C3.33163 3.94817 3.21328 3.92654 3.1097 3.87109C3.00612 3.81564 2.9225 3.72915 2.87058 3.62375C2.81866 3.51836 2.80105 3.39935 2.82021 3.28343C2.83938 3.16752 2.89435 3.06051 2.97743 2.97743C3.06051 2.89435 3.16752 2.83938 3.28343 2.82021C3.39935 2.80105 3.51836 2.81866 3.62375 2.87058C3.72915 2.9225 3.81564 3.00612 3.87109 3.1097C3.92654 3.21328 3.94817 3.33163 3.93293 3.44813C3.91685 3.57107 3.8606 3.68525 3.77293 3.77293C3.68525 3.8606 3.57107 3.91685 3.44813 3.93293ZM6.26063 12.3704C6.14413 12.3857 6.02578 12.364 5.9222 12.3086C5.81862 12.2531 5.735 12.1666 5.68308 12.0613C5.63116 11.9559 5.61355 11.8368 5.63271 11.7209C5.65188 11.605 5.70685 11.498 5.78993 11.4149C5.87301 11.3319 5.98002 11.2769 6.09593 11.2577C6.21185 11.2385 6.33086 11.2562 6.43625 11.3081C6.54165 11.36 6.62814 11.4436 6.68359 11.5472C6.73904 11.6508 6.76067 11.7691 6.74543 11.8856C6.72935 12.0086 6.6731 12.1228 6.58543 12.2104C6.49775 12.2981 6.38357 12.3544 6.26063 12.3704ZM6.26063 9.55793C6.14413 9.57317 6.02578 9.55154 5.9222 9.49609C5.81862 9.44064 5.735 9.35415 5.68308 9.24875C5.63116 9.14336 5.61355 9.02435 5.63271 8.90843C5.65188 8.79252 5.70685 8.68551 5.78993 8.60243C5.87301 8.51935 5.98002 8.46438 6.09593 8.44521C6.21185 8.42605 6.33086 8.44366 6.43625 8.49558C6.54165 8.5475 6.62814 8.63112 6.68359 8.7347C6.73904 8.83828 6.76067 8.95663 6.74543 9.07312C6.72935 9.19607 6.6731 9.31025 6.58543 9.39793C6.49775 9.4856 6.38357 9.54185 6.26063 9.55793ZM6.26063 6.74543C6.14413 6.76067 6.02578 6.73904 5.9222 6.68359C5.81862 6.62814 5.735 6.54165 5.68308 6.43625C5.63116 6.33086 5.61355 6.21185 5.63271 6.09593C5.65188 5.98002 5.70685 5.87301 5.78993 5.78993C5.87301 5.70685 5.98002 5.65188 6.09593 5.63271C6.21185 5.61355 6.33086 5.63116 6.43625 5.68308C6.54165 5.735 6.62814 5.81862 6.68359 5.9222C6.73904 6.02578 6.76067 6.14413 6.74543 6.26063C6.72935 6.38357 6.6731 6.49775 6.58543 6.58543C6.49775 6.6731 6.38357 6.72935 6.26063 6.74543ZM6.26063 3.93293C6.14413 3.94817 6.02578 3.92654 5.9222 3.87109C5.81862 3.81564 5.735 3.72915 5.68308 3.62375C5.63116 3.51836 5.61355 3.39935 5.63271 3.28343C5.65188 3.16752 5.70685 3.06051 5.78993 2.97743C5.87301 2.89435 5.98002 2.83938 6.09593 2.82021C6.21185 2.80105 6.33086 2.81866 6.43625 2.87058C6.54165 2.9225 6.62814 3.00612 6.68359 3.1097C6.73904 3.21328 6.76067 3.33163 6.74543 3.44813C6.72935 3.57107 6.6731 3.68525 6.58543 3.77293C6.49775 3.8606 6.38357 3.91685 6.26063 3.93293ZM9.07312 15.1829C8.95663 15.1982 8.83828 15.1765 8.7347 15.1211C8.63112 15.0656 8.5475 14.9791 8.49558 14.8738C8.44366 14.7684 8.42605 14.6493 8.44521 14.5334C8.46438 14.4175 8.51935 14.3105 8.60243 14.2274C8.68551 14.1444 8.79252 14.0894 8.90843 14.0702C9.02435 14.051 9.14336 14.0687 9.24875 14.1206C9.35415 14.1725 9.44064 14.2561 9.49609 14.3597C9.55154 14.4633 9.57317 14.5816 9.55793 14.6981C9.54185 14.8211 9.4856 14.9353 9.39793 15.0229C9.31025 15.1106 9.19607 15.1669 9.07312 15.1829ZM9.07312 12.3704C8.95663 12.3857 8.83828 12.364 8.7347 12.3086C8.63112 12.2531 8.5475 12.1666 8.49558 12.0613C8.44366 11.9559 8.42605 11.8368 8.44521 11.7209C8.46438 11.605 8.51935 11.498 8.60243 11.4149C8.68551 11.3319 8.79252 11.2769 8.90843 11.2577C9.02435 11.2385 9.14336 11.2562 9.24875 11.3081C9.35415 11.36 9.44064 11.4436 9.49609 11.5472C9.55154 11.6508 9.57317 11.7691 9.55793 11.8856C9.54185 12.0086 9.4856 12.1228 9.39793 12.2104C9.31025 12.2981 9.19607 12.3544 9.07312 12.3704ZM9.07312 9.55793C8.95663 9.57317 8.83828 9.55154 8.7347 9.49609C8.63112 9.44064 8.5475 9.35415 8.49558 9.24875C8.44366 9.14336 8.42605 9.02435 8.44521 8.90843C8.46438 8.79252 8.51935 8.68551 8.60243 8.60243C8.68551 8.51935 8.79252 8.46438 8.90843 8.44521C9.02435 8.42605 9.14336 8.44366 9.24875 8.49558C9.35415 8.5475 9.44064 8.63112 9.49609 8.7347C9.55154 8.83828 9.57317 8.95663 9.55793 9.07312C9.54185 9.19607 9.4856 9.31025 9.39793 9.39793C9.31025 9.4856 9.19607 9.54185 9.07312 9.55793ZM9.07312 6.74543C8.95663 6.76067 8.83828 6.73904 8.7347 6.68359C8.63112 6.62814 8.5475 6.54165 8.49558 6.43625C8.44366 6.33086 8.42605 6.21185 8.44521 6.09593C8.46438 5.98002 8.51935 5.87301 8.60243 5.78993C8.68551 5.70685 8.79252 5.65188 8.90843 5.63271C9.02435 5.61355 9.14336 5.63116 9.24875 5.68308C9.35415 5.735 9.44064 5.81862 9.49609 5.9222C9.55154 6.02578 9.57317 6.14413 9.55793 6.26063C9.54185 6.38357 9.4856 6.49775 9.39793 6.58543C9.31025 6.6731 9.19607 6.72935 9.07312 6.74543ZM9.07312 3.93293C8.95663 3.94817 8.83828 3.92654 8.7347 3.87109C8.63112 3.81564 8.5475 3.72915 8.49558 3.62375C8.44366 3.51836 8.42605 3.39935 8.44521 3.28343C8.46438 3.16752 8.51935 3.06051 8.60243 2.97743C8.68551 2.89435 8.79252 2.83938 8.90843 2.82021C9.02435 2.80105 9.14336 2.81866 9.24875 2.87058C9.35415 2.9225 9.44064 3.00612 9.49609 3.1097C9.55154 3.21328 9.57317 3.33163 9.55793 3.44813C9.54185 3.57107 9.4856 3.68525 9.39793 3.77293C9.31025 3.8606 9.19607 3.91685 9.07312 3.93293ZM15.6094 16.3125H11.25V7.3125H15.1875C15.3367 7.3125 15.4798 7.37176 15.5852 7.47725C15.6907 7.58274 15.75 7.72582 15.75 7.875V16.1719C15.75 16.2092 15.7352 16.2449 15.7088 16.2713C15.6824 16.2977 15.6467 16.3125 15.6094 16.3125Z" fill="white"/>
<path d="M14.5898 14.1328C14.4786 14.1328 14.3698 14.1658 14.2773 14.2276C14.1848 14.2894 14.1127 14.3773 14.0702 14.4801C14.0276 14.5828 14.0164 14.6959 14.0382 14.8051C14.0599 14.9142 14.1134 15.0144 14.1921 15.0931C14.2708 15.1717 14.371 15.2253 14.4801 15.247C14.5892 15.2687 14.7023 15.2576 14.8051 15.215C14.9079 15.1724 14.9957 15.1003 15.0575 15.0078C15.1194 14.9153 15.1523 14.8066 15.1523 14.6953C15.1523 14.5461 15.0931 14.4031 14.9876 14.2976C14.8821 14.1921 14.739 14.1328 14.5898 14.1328ZM14.5898 11.3203C14.4786 11.3203 14.3698 11.3533 14.2773 11.4151C14.1848 11.4769 14.1127 11.5648 14.0702 11.6676C14.0276 11.7703 14.0164 11.8834 14.0382 11.9926C14.0599 12.1017 14.1134 12.2019 14.1921 12.2806C14.2708 12.3592 14.371 12.4128 14.4801 12.4345C14.5892 12.4562 14.7023 12.4451 14.8051 12.4025C14.9079 12.3599 14.9957 12.2878 15.0575 12.1953C15.1194 12.1028 15.1523 11.9941 15.1523 11.8828C15.1523 11.7336 15.0931 11.5906 14.9876 11.4851C14.8821 11.3796 14.739 11.3203 14.5898 11.3203ZM14.5898 8.50781C14.4786 8.50781 14.3698 8.5408 14.2773 8.60261C14.1848 8.66442 14.1127 8.75227 14.0702 8.85505C14.0276 8.95784 14.0164 9.07094 14.0382 9.18005C14.0599 9.28917 14.1134 9.38939 14.1921 9.46806C14.2708 9.54673 14.371 9.6003 14.4801 9.622C14.5892 9.64371 14.7023 9.63257 14.8051 9.58999C14.9079 9.54742 14.9957 9.47532 15.0575 9.38282C15.1194 9.29032 15.1523 9.18156 15.1523 9.07031C15.1523 8.92113 15.0931 8.77805 14.9876 8.67257C14.8821 8.56708 14.739 8.50781 14.5898 8.50781ZM12.3398 14.1328C12.2286 14.1328 12.1198 14.1658 12.0273 14.2276C11.9348 14.2894 11.8627 14.3773 11.8202 14.4801C11.7776 14.5828 11.7664 14.6959 11.7882 14.8051C11.8099 14.9142 11.8634 15.0144 11.9421 15.0931C12.0208 15.1717 12.121 15.2253 12.2301 15.247C12.3392 15.2687 12.4523 15.2576 12.5551 15.215C12.6579 15.1724 12.7457 15.1003 12.8075 15.0078C12.8694 14.9153 12.9023 14.8066 12.9023 14.6953C12.9023 14.5461 12.8431 14.4031 12.7376 14.2976C12.6321 14.1921 12.489 14.1328 12.3398 14.1328ZM12.3398 11.3203C12.2286 11.3203 12.1198 11.3533 12.0273 11.4151C11.9348 11.4769 11.8627 11.5648 11.8202 11.6676C11.7776 11.7703 11.7664 11.8834 11.7882 11.9926C11.8099 12.1017 11.8634 12.2019 11.9421 12.2806C12.0208 12.3592 12.121 12.4128 12.2301 12.4345C12.3392 12.4562 12.4523 12.4451 12.5551 12.4025C12.6579 12.3599 12.7457 12.2878 12.8075 12.1953C12.8694 12.1028 12.9023 11.9941 12.9023 11.8828C12.9023 11.7336 12.8431 11.5906 12.7376 11.4851C12.6321 11.3796 12.489 11.3203 12.3398 11.3203ZM12.3398 8.50781C12.2286 8.50781 12.1198 8.5408 12.0273 8.60261C11.9348 8.66442 11.8627 8.75227 11.8202 8.85505C11.7776 8.95784 11.7664 9.07094 11.7882 9.18005C11.8099 9.28917 11.8634 9.38939 11.9421 9.46806C12.0208 9.54673 12.121 9.6003 12.2301 9.622C12.3392 9.64371 12.4523 9.63257 12.5551 9.58999C12.6579 9.54742 12.7457 9.47532 12.8075 9.38282C12.8694 9.29032 12.9023 9.18156 12.9023 9.07031C12.9023 8.92113 12.8431 8.77805 12.7376 8.67257C12.6321 8.56708 12.489 8.50781 12.3398 8.50781Z" fill="white"/>
</symbol>


  <symbol viewBox="0 0 16 17" fill="none" xmlns="http://www.w3.org/2000/svg" id="ic_sales">
    <path d="M0 1.47083C0 1.32938 0.0561921 1.19373 0.156215 1.09371C0.256237 0.99369 0.391897 0.9375 0.53335 0.9375H2.1334C2.25237 0.937533 2.36791 0.977341 2.46166 1.05059C2.5554 1.12385 2.62196 1.22634 2.65075 1.34177L3.08276 3.07083H15.4671C15.5455 3.07091 15.6228 3.08822 15.6937 3.12155C15.7645 3.15489 15.8272 3.20341 15.8772 3.26369C15.9272 3.32397 15.9633 3.39451 15.9829 3.47032C16.0026 3.54612 16.0053 3.62533 15.9909 3.7023L14.3908 12.2356C14.368 12.3579 14.3031 12.4682 14.2075 12.5477C14.1118 12.6272 13.9914 12.6707 13.8671 12.6708H4.2668C4.14246 12.6707 4.02206 12.6272 3.92643 12.5477C3.83079 12.4682 3.76593 12.3579 3.74305 12.2356L2.14407 3.7183L1.71739 2.00417H0.53335C0.391897 2.00417 0.256237 1.94798 0.156215 1.84796C0.0561921 1.74794 0 1.61228 0 1.47083ZM3.3089 4.1375L4.70948 11.6042H13.4244L14.825 4.1375H3.3089ZM5.3335 12.6708C4.76769 12.6708 4.22505 12.8956 3.82496 13.2957C3.42487 13.6958 3.2001 14.2384 3.2001 14.8042C3.2001 15.37 3.42487 15.9126 3.82496 16.3127C4.22505 16.7127 4.76769 16.9375 5.3335 16.9375C5.89931 16.9375 6.44195 16.7127 6.84204 16.3127C7.24213 15.9126 7.4669 15.37 7.4669 14.8042C7.4669 14.2384 7.24213 13.6958 6.84204 13.2957C6.44195 12.8956 5.89931 12.6708 5.3335 12.6708ZM12.8004 12.6708C12.2346 12.6708 11.6919 12.8956 11.2919 13.2957C10.8918 13.6958 10.667 14.2384 10.667 14.8042C10.667 15.37 10.8918 15.9126 11.2919 16.3127C11.6919 16.7127 12.2346 16.9375 12.8004 16.9375C13.3662 16.9375 13.9088 16.7127 14.3089 16.3127C14.709 15.9126 14.9338 15.37 14.9338 14.8042C14.9338 14.2384 14.709 13.6958 14.3089 13.2957C13.9088 12.8956 13.3662 12.6708 12.8004 12.6708ZM5.3335 13.7375C5.6164 13.7375 5.88772 13.8499 6.08777 14.0499C6.28781 14.25 6.4002 14.5213 6.4002 14.8042C6.4002 15.0871 6.28781 15.3584 6.08777 15.5584C5.88772 15.7585 5.6164 15.8708 5.3335 15.8708C5.05059 15.8708 4.77927 15.7585 4.57923 15.5584C4.37918 15.3584 4.2668 15.0871 4.2668 14.8042C4.2668 14.5213 4.37918 14.25 4.57923 14.0499C4.77927 13.8499 5.05059 13.7375 5.3335 13.7375ZM12.8004 13.7375C13.0833 13.7375 13.3546 13.8499 13.5547 14.0499C13.7547 14.25 13.8671 14.5213 13.8671 14.8042C13.8671 15.0871 13.7547 15.3584 13.5547 15.5584C13.3546 15.7585 13.0833 15.8708 12.8004 15.8708C12.5175 15.8708 12.2462 15.7585 12.0461 15.5584C11.8461 15.3584 11.7337 15.0871 11.7337 14.8042C11.7337 14.5213 11.8461 14.25 12.0461 14.0499C12.2462 13.8499 12.5175 13.7375 12.8004 13.7375Z" fill="white"/>
  </symbol>

  <symbol viewBox="0 0 16 16" fill="none" xmlns="http://www.w3.org/2000/svg" id="ic_purchase">
    <path fill-rule="evenodd" clip-rule="evenodd" d="M5.06771 0.820513C5.29692 0.33641 5.79055 0 6.36277 0H9.63724C10.2086 0 10.7023 0.33641 10.9323 0.820513C11.4914 0.825436 11.9277 0.850872 12.3174 1.00349C12.7826 1.18586 13.1871 1.4958 13.4848 1.89785C13.7852 2.30236 13.926 2.82256 14.12 3.53723L14.1503 3.64882L14.6333 5.42687C14.9556 5.58927 15.238 5.8213 15.4601 6.10626C15.9693 6.76021 16.0593 7.53887 15.9693 8.43159C15.8809 9.29805 15.6091 10.3893 15.2685 11.7555L15.2464 11.8416C15.0311 12.7056 14.8559 13.4072 14.6488 13.9545C14.4311 14.5255 14.156 14.9932 13.7017 15.3485C13.2482 15.7038 12.7283 15.8572 12.1234 15.9311C11.543 16 10.8218 16 9.93358 16H6.06643C5.17822 16 4.4562 16 3.87662 15.9303C3.27084 15.8581 2.75184 15.7038 2.2975 15.3477C1.84399 14.9932 1.56893 14.5255 1.35118 13.9545C1.14325 13.4072 0.968884 12.7056 0.753588 11.8416L0.731485 11.7555C0.390939 10.3893 0.118339 9.29805 0.0307469 8.43241C-0.0593012 7.53805 0.0307468 6.76021 0.539109 6.10626C0.770778 5.80923 1.04829 5.58933 1.36591 5.42687L1.8489 3.64882L1.88001 3.53723C2.07402 2.82256 2.21482 2.30236 2.51526 1.89703C2.81301 1.49529 3.21755 1.18564 3.68261 1.00349C4.07227 0.850872 4.50778 0.824615 5.06771 0.820513ZM5.06853 2.05374C4.5266 2.05949 4.30967 2.08 4.12957 2.15056C3.87905 2.24876 3.66117 2.41568 3.50087 2.63221C3.3568 2.82667 3.27166 3.09826 3.03426 3.97374L2.74447 5.03713C3.5942 4.92308 4.69115 4.92308 6.05333 4.92308H9.94586C11.3089 4.92308 12.4058 4.92308 13.2547 5.03713L12.9657 3.97292C12.7275 3.09744 12.6432 2.82585 12.4991 2.63138C12.3388 2.41486 12.121 2.24794 11.8704 2.14974C11.6903 2.07918 11.4726 2.05867 10.9307 2.05292C10.8143 2.29798 10.6311 2.50497 10.4021 2.6499C10.1732 2.79483 9.908 2.87177 9.63724 2.87179H6.36277C6.092 2.87177 5.82679 2.79483 5.59787 2.6499C5.36895 2.50497 5.1857 2.29798 5.06935 2.05292M6.36277 1.23077C6.30849 1.23077 6.25643 1.25238 6.21805 1.29085C6.17967 1.32932 6.15811 1.38149 6.15811 1.4359C6.15811 1.4903 6.17967 1.54248 6.21805 1.58095C6.25643 1.61941 6.30849 1.64103 6.36277 1.64103H9.63724C9.69152 1.64103 9.74357 1.61941 9.78196 1.58095C9.82034 1.54248 9.8419 1.4903 9.8419 1.4359C9.8419 1.38149 9.82034 1.32932 9.78196 1.29085C9.74357 1.25238 9.69152 1.23077 9.63724 1.23077H6.36277ZM2.8427 6.26544C2.09776 6.37374 1.73675 6.57067 1.50835 6.86441C1.27914 7.15733 1.17681 7.55528 1.25295 8.30687C1.33071 9.07487 1.58039 10.0792 1.93567 11.5069C2.16325 12.416 2.32042 13.0462 2.50052 13.5171C2.67243 13.9717 2.84189 14.2121 3.05473 14.3787C3.26675 14.5444 3.54017 14.6503 4.02315 14.7085C4.52251 14.7684 5.16922 14.7692 6.10572 14.7692H9.89593C10.8316 14.7692 11.48 14.7684 11.9785 14.7085C12.4615 14.6511 12.7349 14.5444 12.9469 14.3787C13.1598 14.2121 13.3284 13.9717 13.5019 13.5171C13.6804 13.0462 13.8384 12.416 14.0652 11.5069C14.4213 10.0792 14.6709 9.07487 14.7479 8.30687C14.8248 7.55528 14.7217 7.15651 14.4933 6.86359C14.2649 6.57067 13.9039 6.37374 13.1581 6.26544C12.3968 6.15549 11.3637 6.15385 9.89593 6.15385H6.10572C4.63794 6.15385 3.60484 6.15549 2.84352 6.26544" fill="white"/>
  </symbol>

  <symbol viewBox="0 0 18 18" fill="none" xmlns="http://www.w3.org/2000/svg" id="ic_stock">
    <path d="M15.3124 6.89492H2.68856C2.43313 6.89546 2.18111 6.95359 1.95125 7.065C1.7214 7.1764 1.51963 7.33821 1.36096 7.53838C1.20335 7.7383 1.0932 7.9714 1.03881 8.2201C0.984428 8.4688 0.98723 8.7266 1.04701 8.97406L2.40055 14.5161C2.59617 15.2303 3.02174 15.8601 3.61139 16.3081C4.20124 16.757 4.92342 17 5.66635 17H12.3329C13.0758 17 13.798 16.757 14.3878 16.3081C14.9775 15.8601 15.4031 15.2303 15.5987 14.5161L16.9522 8.97492C17.0433 8.60134 17.0034 8.20781 16.839 7.86019C16.6746 7.51256 16.3958 7.23194 16.0493 7.0653C15.8191 6.9536 15.5666 6.89535 15.3107 6.89492M5.61619 10.2627V13.6314M9.00048 10.2627V13.6314M12.3848 10.2627V13.6314M14.9232 6.89492C14.9229 6.12004 14.7695 5.35286 14.4717 4.63746C14.174 3.92207 13.7378 3.27256 13.1882 2.72627C12.0753 1.62 10.5697 0.999342 9.00048 1C7.43126 0.999342 5.92561 1.62 4.81271 2.72627C4.26331 3.27263 3.82728 3.92217 3.52969 4.63756C3.2321 5.35296 3.0788 6.1201 3.07862 6.89492" stroke="white" stroke-linecap="round" stroke-linejoin="round"/>
  </symbol>

  <symbol viewBox="0 0 16 20" fill="none" xmlns="http://www.w3.org/2000/svg" id="ic_user">
    <path d="M8 0.333344C9.13018 0.333344 10.235 0.611926 11.1747 1.13386C12.1144 1.6558 12.8468 2.39765 13.2793 3.2656C13.7118 4.13355 13.825 5.08861 13.6045 6.01002C13.384 6.93143 12.8398 7.7778 12.0406 8.4421C11.2415 9.1064 10.2233 9.55879 9.1148 9.74207C8.00634 9.92535 6.85739 9.83129 5.81324 9.47177C4.76909 9.11226 3.87664 8.50344 3.24875 7.7223C2.62085 6.94117 2.28571 6.0228 2.28571 5.08334L2.29143 4.87719C2.35534 3.65431 2.98469 2.49913 4.04826 1.65257C5.11182 0.806008 6.52747 0.333414 8 0.333344ZM10.2857 11.7333C11.8012 11.7333 13.2547 12.2338 14.3263 13.1246C15.398 14.0154 16 15.2236 16 16.4833V17.4333C16 17.9373 15.7592 18.4205 15.3305 18.7768C14.9019 19.1332 14.3205 19.3333 13.7143 19.3333H2.28571C1.67951 19.3333 1.09812 19.1332 0.66947 18.7768C0.240816 18.4205 0 17.9373 0 17.4333V16.4833C0 15.2236 0.602039 14.0154 1.67368 13.1246C2.74531 12.2338 4.19876 11.7333 5.71429 11.7333H10.2857Z" fill="white"/>
  </symbol>

  <symbol viewBox="0 0 16 19" fill="none" xmlns="http://www.w3.org/2000/svg" id="ic_report">
    <path d="M9 6.65H14.5L9 1.425V6.65ZM2 0H10L16 5.7V17.1C16 17.6039 15.7893 18.0872 15.4142 18.4435C15.0391 18.7998 14.5304 19 14 19H2C1.46957 19 0.960859 18.7998 0.585786 18.4435C0.210714 18.0872 0 17.6039 0 17.1V1.9C0 0.8455 0.89 0 2 0ZM3 17.1H5V11.4H3V17.1ZM7 17.1H9V9.5H7V17.1ZM11 17.1H13V13.3H11V17.1Z" fill="white"/>
  </symbol>

  <symbol viewBox="0 0 16 16" fill="none" xmlns="http://www.w3.org/2000/svg" id="ic_setting">
    <path fill-rule="evenodd" clip-rule="evenodd" d="M9.5872 0.4336C9.6568 0.5688 9.6744 0.7424 9.7088 1.0896C9.7744 1.7456 9.8072 2.0736 9.9448 2.2544C10.0305 2.36666 10.1445 2.45422 10.275 2.50817C10.4055 2.56213 10.548 2.58056 10.688 2.5616C10.912 2.532 11.168 2.3232 11.6784 1.9056C11.948 1.684 12.0832 1.5736 12.228 1.5272C12.4124 1.46827 12.612 1.47822 12.7896 1.5552C12.9296 1.616 13.0536 1.7392 13.2992 1.9856L14.0144 2.7008C14.2608 2.9472 14.384 3.0704 14.4448 3.2104C14.5218 3.38804 14.5317 3.58758 14.4728 3.772C14.4264 3.9168 14.316 4.052 14.0952 4.3216C13.6768 4.8328 13.468 5.088 13.4376 5.3128C13.4189 5.45272 13.4375 5.5951 13.4916 5.72549C13.5457 5.85588 13.6333 5.96963 13.7456 6.0552C13.9256 6.1928 14.2544 6.2256 14.9112 6.2912C15.2576 6.3256 15.4312 6.3432 15.5672 6.4128C15.7388 6.50176 15.8723 6.64981 15.9432 6.8296C16 6.9712 16 7.1456 16 7.4944V8.5056C16 8.8544 16 9.0288 15.944 9.1696C15.8729 9.34995 15.7387 9.49835 15.5664 9.5872C15.4312 9.6568 15.2576 9.6744 14.9104 9.7088C14.2544 9.7744 13.9264 9.8072 13.7456 9.9448C13.6333 10.0305 13.5458 10.1445 13.4918 10.275C13.4379 10.4055 13.4194 10.548 13.4384 10.688C13.4688 10.912 13.6776 11.168 14.0952 11.6784C14.316 11.948 14.4264 12.0824 14.4728 12.228C14.5317 12.4124 14.5218 12.612 14.4448 12.7896C14.384 12.9296 14.2608 13.0528 14.0144 13.2992L13.2992 14.0136C13.0528 14.2608 12.9296 14.384 12.7896 14.444C12.612 14.521 12.4124 14.5309 12.228 14.472C12.0832 14.4256 11.948 14.3152 11.6784 14.0944C11.1672 13.6768 10.912 13.468 10.688 13.4384C10.548 13.4194 10.4055 13.4379 10.275 13.4918C10.1445 13.5458 10.0305 13.6333 9.9448 13.7456C9.8072 13.9256 9.7744 14.2536 9.7088 14.9104C9.6744 15.2576 9.6568 15.4312 9.5872 15.5664C9.49855 15.7386 9.35046 15.8727 9.1704 15.944C9.0288 16 8.8544 16 8.5056 16H7.4944C7.1456 16 6.9712 16 6.8304 15.944C6.65005 15.8729 6.50165 15.7387 6.4128 15.5664C6.3432 15.4312 6.3256 15.2576 6.2912 14.9104C6.2256 14.2544 6.1928 13.9264 6.0552 13.7456C5.96954 13.6335 5.85575 13.546 5.72536 13.492C5.59498 13.4381 5.45264 13.4196 5.3128 13.4384C5.088 13.468 4.8328 13.6768 4.3216 14.0944C4.052 14.316 3.9168 14.4264 3.772 14.4728C3.58758 14.5317 3.38804 14.5218 3.2104 14.4448C3.0704 14.384 2.9464 14.2608 2.7008 14.0144L1.9856 13.2992C1.7392 13.0528 1.616 12.9296 1.5552 12.7896C1.47822 12.612 1.46827 12.4124 1.5272 12.228C1.5736 12.0832 1.684 11.948 1.9048 11.6784C2.3232 11.1672 2.532 10.912 2.5616 10.6872C2.58042 10.5474 2.56191 10.405 2.50796 10.2746C2.45401 10.1443 2.36653 10.0305 2.2544 9.9448C2.0744 9.8072 1.7456 9.7744 1.0888 9.7088C0.7424 9.6744 0.5688 9.6568 0.4328 9.5872C0.261238 9.49824 0.127677 9.35019 0.0568001 9.1704C7.7486e-08 9.0288 0 8.8544 0 8.5056V7.4944C0 7.1456 -5.36442e-08 6.9712 0.0559999 6.8304C0.12711 6.65005 0.261292 6.50165 0.4336 6.4128C0.5688 6.3432 0.7424 6.3256 1.0896 6.2912C1.7456 6.2256 2.0744 6.1928 2.2544 6.0552C2.36667 5.96963 2.45431 5.85588 2.5084 5.72549C2.5625 5.5951 2.58113 5.45272 2.5624 5.3128C2.532 5.088 2.3224 4.8328 1.9048 4.3208C1.684 4.0512 1.5736 3.9168 1.5272 3.7712C1.46827 3.58678 1.47822 3.38724 1.5552 3.2096C1.616 3.0704 1.7392 2.9464 1.9856 2.7L2.7008 1.9856C2.9472 1.7392 3.0704 1.6152 3.2104 1.5552C3.38804 1.47822 3.58758 1.46827 3.772 1.5272C3.9168 1.5736 4.052 1.684 4.3216 1.9048C4.8328 2.3224 5.088 2.5312 5.312 2.5616C5.45217 2.58062 5.59488 2.56214 5.72558 2.50803C5.85627 2.45392 5.97029 2.36613 6.056 2.2536C6.192 2.0736 6.2256 1.7456 6.2912 1.0888C6.3256 0.7424 6.3432 0.5688 6.4128 0.4328C6.50161 0.260937 6.64968 0.127075 6.8296 0.0559999C6.9712 -5.36442e-08 7.1456 0 7.4944 0H8.5056C8.8544 0 9.0288 -5.36442e-08 9.1696 0.0559999C9.34995 0.12711 9.49835 0.261292 9.5872 0.4336ZM8 11.2C8.84869 11.2 9.66263 10.8629 10.2627 10.2627C10.8629 9.66263 11.2 8.84869 11.2 8C11.2 7.15131 10.8629 6.33737 10.2627 5.73726C9.66263 5.13714 8.84869 4.8 8 4.8C7.15131 4.8 6.33737 5.13714 5.73726 5.73726C5.13714 6.33737 4.8 7.15131 4.8 8C4.8 8.84869 5.13714 9.66263 5.73726 10.2627C6.33737 10.8629 7.15131 11.2 8 11.2Z" fill="white"/>
  </symbol>


  <symbol viewBox="0 0 16 18" fill="none" xmlns="http://www.w3.org/2000/svg" id="ic_security">
    <path d="M8 0L0 3.27273V8.18182C0 12.7227 3.41333 16.9691 8 18C12.5867 16.9691 16 12.7227 16 8.18182V3.27273L8 0ZM8 4.90909C9.24444 4.90909 10.4889 5.80909 10.4889 6.95455V8.18182C11.0222 8.18182 11.5556 8.67273 11.5556 9.24545V12.1091C11.5556 12.6 11.0222 13.0909 10.4 13.0909H5.51111C4.97778 13.0909 4.44444 12.6 4.44444 12.0273V9.16364C4.44444 8.67273 4.97778 8.18182 5.51111 8.18182V6.95455C5.51111 5.80909 6.75556 4.90909 8 4.90909ZM8 5.89091C7.28889 5.89091 6.66667 6.3 6.66667 6.95455V8.18182H9.33333V6.95455C9.33333 6.3 8.71111 5.89091 8 5.89091Z" fill="white"/>
  </symbol>

  <symbol  viewBox="0 0 16 16" fill="none" xmlns="http://www.w3.org/2000/svg" id="ic_back">
    <path d="M2.66667 6.66667L2.19533 7.138L1.724 6.66667L2.19533 6.19533L2.66667 6.66667ZM14 12C14 12.1768 13.9298 12.3464 13.8047 12.4714C13.6797 12.5964 13.5101 12.6667 13.3333 12.6667C13.1565 12.6667 12.987 12.5964 12.8619 12.4714C12.7369 12.3464 12.6667 12.1768 12.6667 12H14ZM5.52867 10.4713L2.19533 7.138L3.138 6.19533L6.47133 9.52867L5.52867 10.4713ZM2.19533 6.19533L5.52867 2.862L6.47133 3.80467L3.138 7.138L2.19533 6.19533ZM2.66667 6H9.33333V7.33333H2.66667V6ZM14 10.6667V12H12.6667V10.6667H14ZM9.33333 6C10.571 6 11.758 6.49166 12.6332 7.36683C13.5083 8.242 14 9.42899 14 10.6667H12.6667C12.6667 9.78261 12.3155 8.93476 11.6904 8.30964C11.0652 7.68452 10.2174 7.33333 9.33333 7.33333V6Z" fill="white"/>
  </symbol>


  <symbol viewBox="0 0 16 16" fill="none" xmlns="http://www.w3.org/2000/svg" id="ic_fnb">
    <path d="M12.04 15.3333H13.1467C13.7067 15.3333 14.1667 14.9 14.2334 14.3533L15.3334 3.36667H12V0.666672H10.6867V3.36667H7.37335L7.57335 4.92667C8.71335 5.24001 9.78002 5.80667 10.42 6.43334C11.38 7.38001 12.04 8.36 12.04 9.96001V15.3333ZM0.666687 14.6667V14H10.6867V14.6667C10.6867 15.0267 10.3867 15.3333 10 15.3333H1.33335C0.966687 15.3333 0.666687 15.0267 0.666687 14.6667ZM10.6867 10C10.6867 4.66667 0.666687 4.66667 0.666687 10H10.6867ZM0.666687 11.3333H10.6667V12.6667H0.666687V11.3333Z" fill="white"/>
  </symbol>



  <symbol viewBox="0 0 14 9" fill="none" xmlns="http://www.w3.org/2000/svg" id="ic_finance">
    <path d="M0 0H14V9H0V0ZM7 2.25C7.61884 2.25 8.21233 2.48705 8.64992 2.90901C9.0875 3.33097 9.33333 3.90326 9.33333 4.5C9.33333 5.09674 9.0875 5.66903 8.64992 6.09099C8.21233 6.51295 7.61884 6.75 7 6.75C6.38116 6.75 5.78767 6.51295 5.35008 6.09099C4.9125 5.66903 4.66667 5.09674 4.66667 4.5C4.66667 3.90326 4.9125 3.33097 5.35008 2.90901C5.78767 2.48705 6.38116 2.25 7 2.25ZM3.11111 1.5C3.11111 1.89782 2.94722 2.27936 2.6555 2.56066C2.36378 2.84196 1.96811 3 1.55556 3V6C1.96811 6 2.36378 6.15804 2.6555 6.43934C2.94722 6.72064 3.11111 7.10218 3.11111 7.5H10.8889C10.8889 7.10218 11.0528 6.72064 11.3445 6.43934C11.6362 6.15804 12.0319 6 12.4444 6V3C12.0319 3 11.6362 2.84196 11.3445 2.56066C11.0528 2.27936 10.8889 1.89782 10.8889 1.5H3.11111Z" fill="white"/>
  </symbol>


  <symbol viewBox="0 0 32 32" fill="none" xmlns="http://www.w3.org/2000/svg"  id="ic_subscribe">
    <path d="M6.67201 7.99899H28.0053V10.6657H6.67201V7.99899ZM9.33868 2.66699H25.3387V5.33366H9.33868V2.66699ZM27.996 13.3217H6.67067C6.31908 13.3225 5.9711 13.3926 5.64661 13.528C5.32212 13.6634 5.02746 13.8613 4.77946 14.1105C4.53147 14.3598 4.33499 14.6554 4.20125 14.9806C4.06752 15.3057 3.99913 15.6541 4.00001 16.0057V26.6377C3.99913 26.9893 4.06752 27.3376 4.20125 27.6627C4.33499 27.9879 4.53147 28.2835 4.77946 28.5328C5.02746 28.782 5.32212 28.98 5.64661 29.1153C5.9711 29.2507 6.31908 29.3208 6.67067 29.3217H27.996C28.3476 29.3208 28.6956 29.2507 29.0201 29.1153C29.3446 28.98 29.6392 28.782 29.8872 28.5328C30.1352 28.2835 30.3317 27.9879 30.4654 27.6627C30.5992 27.3376 30.6676 26.9893 30.6667 26.6377V16.0057C30.6676 15.6541 30.5992 15.3057 30.4654 14.9806C30.3317 14.6554 30.1352 14.3598 29.8872 14.1105C29.6392 13.8613 29.3446 13.6634 29.0201 13.528C28.6956 13.3926 28.3476 13.3225 27.996 13.3217ZM28 26.667H6.66668V16.0003H28V26.667Z" fill="white"/>
    <path d="M16.0054 25.3213H18.672V22.6693H21.3387V19.9973H18.672V17.3213H16.0054V20.0013H13.3387V22.6693H16.0054V25.3213Z" fill="white"/>
  </symbol>

  <symbol viewBox="0 0 27 27" fill="none" xmlns="http://www.w3.org/2000/svg" id="ic_transaction">
    <path d="M23.9167 1H3.08333C2.5308 1 2.0009 1.21949 1.61019 1.61019C1.21949 2.0009 1 2.5308 1 3.08333V23.9167C1 24.4692 1.21949 24.9991 1.61019 25.3898C2.0009 25.7805 2.5308 26 3.08333 26H23.9167C24.4692 26 24.9991 25.7805 25.3898 25.3898C25.7805 24.9991 26 24.4692 26 23.9167V3.08333C26 2.5308 25.7805 2.0009 25.3898 1.61019C24.9991 1.21949 24.4692 1 23.9167 1Z" stroke="white" stroke-width="2" stroke-linecap="round" stroke-linejoin="round"/>
    <path d="M11.4167 18.3611L14.8889 21.1389L20.4444 14.1944M6.55554 7.25H20.4444M6.55554 12.8056H12.1111" stroke="white" stroke-width="2" stroke-linecap="round" stroke-linejoin="round"/>
  </symbol>

  <symbol viewBox="0 0 25 25" fill="none" xmlns="http://www.w3.org/2000/svg" id="ic_customer">
    <path d="M25 25H23.2143V20.5357C23.2129 19.3521 22.7421 18.2175 21.9052 17.3806C21.0683 16.5436 19.9336 16.0728 18.75 16.0714V14.2857C20.407 14.2876 21.9956 14.9467 23.1673 16.1184C24.339 17.2901 24.9981 18.8787 25 20.5357V25ZM17.8571 25H16.0714V20.5357C16.07 19.3521 15.5992 18.2175 14.7623 17.3806C13.9254 16.5436 12.7907 16.0728 11.6071 16.0714H6.25C5.06643 16.0728 3.93175 16.5436 3.09484 17.3806C2.25793 18.2175 1.78713 19.3521 1.78571 20.5357V25H0V20.5357C0.0018905 18.8787 0.660978 17.2901 1.83267 16.1184C3.00436 14.9467 4.59298 14.2876 6.25 14.2857H11.6071C13.2642 14.2876 14.8528 14.9467 16.0245 16.1184C17.1962 17.2901 17.8553 18.8787 17.8571 20.5357V25ZM16.0714 0V1.78571C17.2554 1.78571 18.3909 2.25606 19.2282 3.09327C20.0654 3.93049 20.5357 5.066 20.5357 6.25C20.5357 7.434 20.0654 8.56951 19.2282 9.40673C18.3909 10.2439 17.2554 10.7143 16.0714 10.7143V12.5C17.729 12.5 19.3187 11.8415 20.4908 10.6694C21.6629 9.49732 22.3214 7.9076 22.3214 6.25C22.3214 4.5924 21.6629 3.00268 20.4908 1.83058C19.3187 0.65848 17.729 0 16.0714 0ZM8.92857 1.78571C9.81152 1.78571 10.6746 2.04754 11.4088 2.53808C12.1429 3.02862 12.7151 3.72585 13.053 4.54159C13.3909 5.35733 13.4793 6.25495 13.3071 7.12094C13.1348 7.98693 12.7096 8.78238 12.0853 9.40673C11.461 10.0311 10.6655 10.4563 9.79951 10.6285C8.93352 10.8008 8.0359 10.7124 7.22016 10.3745C6.40442 10.0366 5.7072 9.46437 5.21665 8.73022C4.72611 7.99608 4.46429 7.13295 4.46429 6.25C4.46429 5.066 4.93463 3.93049 5.77184 3.09327C6.60906 2.25606 7.74457 1.78571 8.92857 1.78571ZM8.92857 0C7.69244 0 6.48407 0.366556 5.45626 1.05331C4.42845 1.74007 3.62737 2.71619 3.15432 3.85823C2.68128 5.00027 2.55751 6.25693 2.79866 7.46931C3.03982 8.68169 3.63508 9.79534 4.50915 10.6694C5.38323 11.5435 6.49688 12.1388 7.70926 12.3799C8.92164 12.6211 10.1783 12.4973 11.3203 12.0242C12.4624 11.5512 13.4385 10.7501 14.1253 9.72231C14.812 8.69451 15.1786 7.48613 15.1786 6.25C15.1786 4.5924 14.5201 3.00268 13.348 1.83058C12.1759 0.65848 10.5862 0 8.92857 0Z" fill="white"/>
  </symbol>

  <symbol viewBox="0 0 24 24" fill="none" xmlns="http://www.w3.org/2000/svg" id="ic_staff">
    <path d="M24.0192 20.402C23.3921 18.9987 22.482 17.7239 21.3397 16.6489C20.2009 15.5707 18.8518 14.7111 17.367 14.1175C17.3537 14.1112 17.3404 14.108 17.3271 14.1018C19.3982 12.6884 20.7446 10.3863 20.7446 7.78894C20.7446 3.48618 17.0545 0 12.5 0C7.94551 0 4.25537 3.48618 4.25537 7.78894C4.25537 10.3863 5.60177 12.6884 7.6729 14.1049C7.65961 14.1112 7.64631 14.1143 7.63301 14.1206C6.14366 14.7142 4.80723 15.5653 3.6603 16.652C2.51905 17.7279 1.60913 19.0024 0.980795 20.4052C0.363519 21.7784 0.030608 23.2508 8.31311e-05 24.7425C-0.00080418 24.776 0.00541927 24.8093 0.018387 24.8405C0.0313547 24.8718 0.0508041 24.9002 0.0755893 24.9242C0.100374 24.9482 0.129994 24.9673 0.162702 24.9803C0.195411 24.9933 0.230546 25 0.266039 25H2.26071C2.40698 25 2.52334 24.8901 2.52666 24.755C2.59315 22.3304 3.62373 20.0597 5.44553 18.3386C7.33049 16.5578 9.83379 15.5779 12.5 15.5779C15.1662 15.5779 17.6695 16.5578 19.5545 18.3386C21.3763 20.0597 22.4068 22.3304 22.4733 24.755C22.4767 24.8932 22.593 25 22.7393 25H24.734C24.7695 25 24.8046 24.9933 24.8373 24.9803C24.87 24.9673 24.8996 24.9482 24.9244 24.9242C24.9492 24.9002 24.9686 24.8718 24.9816 24.8405C24.9946 24.8093 25.0008 24.776 24.9999 24.7425C24.9667 23.2412 24.6376 21.7808 24.0192 20.402V20.402ZM12.5 13.191C10.9741 13.191 9.53792 12.6288 8.45747 11.608C7.37703 10.5873 6.78195 9.23053 6.78195 7.78894C6.78195 6.34736 7.37703 4.99058 8.45747 3.96985C9.53792 2.94912 10.9741 2.38693 12.5 2.38693C14.0259 2.38693 15.4621 2.94912 16.5425 3.96985C17.623 4.99058 18.218 6.34736 18.218 7.78894C18.218 9.23053 17.623 10.5873 16.5425 11.608C15.4621 12.6288 14.0259 13.191 12.5 13.191Z" fill="white"/>
  </symbol>

  <symbol viewBox="0 0 14 10" fill="none" xmlns="http://www.w3.org/2000/svg" id="ic_pos">
    <path d="M0 1.75C0 0.784 0.784 0 1.75 0H12.25C13.216 0 14 0.784 14 1.75V8.25C14 8.71413 13.8156 9.15925 13.4874 9.48744C13.1592 9.81563 12.7141 10 12.25 10H1.75C1.28587 10 0.840752 9.81563 0.512563 9.48744C0.184374 9.15925 0 8.71413 0 8.25V1.75ZM5.5 7C5.36739 7 5.24021 7.05268 5.14645 7.14645C5.05268 7.24021 5 7.36739 5 7.5C5 7.63261 5.05268 7.75979 5.14645 7.85355C5.24021 7.94732 5.36739 8 5.5 8H8.5C8.63261 8 8.75979 7.94732 8.85355 7.85355C8.94732 7.75979 9 7.63261 9 7.5C9 7.36739 8.94732 7.24021 8.85355 7.14645C8.75979 7.05268 8.63261 7 8.5 7H5.5Z" fill="white"/>
  </symbol>

  <symbol viewBox="0 0 14 13" fill="none" xmlns="http://www.w3.org/2000/svg" id="ic_cashier">
    <path d="M0 10.1111H14V13H0V10.1111ZM2.975 2.88889H4.9V2.16667H2.8V0H8.4V2.16667H6.3V2.88889H11.06C11.76 2.88889 12.46 3.61111 12.6 4.33333L12.95 9.38889H1.05L1.435 4.33333C1.435 3.61111 2.135 2.88889 2.975 2.88889ZM7.7 4.33333V5.77778H11.2V4.33333H7.7ZM2.8 4.33333V5.05556H4.2V4.33333H2.8ZM4.9 4.33333V5.05556H6.3V4.33333H4.9ZM2.8 5.77778V6.5H4.2V5.77778H2.8ZM4.9 5.77778V6.5H6.3V5.77778H4.9ZM2.8 7.22222V7.94444H4.2V7.22222H2.8ZM4.9 7.22222V7.94444H6.3V7.22222H4.9ZM3.5 0.722222V1.44444H7.7V0.722222H3.5Z" fill="white"/>
  </symbol>


  <symbol viewBox="0 0 32 32" fill="none" xmlns="http://www.w3.org/2000/svg" id="ic_help">
      <path d="M16 2C13.2311 2 10.5243 2.82109 8.22201 4.35943C5.91973 5.89777 4.12531 8.08427 3.06569 10.6424C2.00606 13.2006 1.72881 16.0155 2.269 18.7313C2.8092 21.447 4.14257 23.9416 6.1005 25.8995C8.05844 27.8574 10.553 29.1908 13.2687 29.731C15.9845 30.2712 18.7994 29.9939 21.3576 28.9343C23.9157 27.8747 26.1022 26.0803 27.6406 23.778C29.1789 21.4757 30 18.7689 30 16C30 12.287 28.525 8.72601 25.8995 6.1005C23.274 3.475 19.713 2 16 2V2ZM16 28C13.6266 28 11.3065 27.2962 9.33316 25.9776C7.35977 24.6591 5.8217 22.7849 4.91344 20.5922C4.00519 18.3995 3.76755 15.9867 4.23058 13.6589C4.6936 11.3311 5.83649 9.19295 7.51472 7.51472C9.19295 5.83649 11.3311 4.6936 13.6589 4.23058C15.9867 3.76755 18.3995 4.00519 20.5922 4.91345C22.7849 5.8217 24.6591 7.35977 25.9776 9.33316C27.2962 11.3065 28 13.6266 28 16C28 19.1826 26.7357 22.2348 24.4853 24.4853C22.2348 26.7357 19.1826 28 16 28Z" fill="white"/>
      <path d="M16 25C16.8284 25 17.5 24.3284 17.5 23.5C17.5 22.6716 16.8284 22 16 22C15.1716 22 14.5 22.6716 14.5 23.5C14.5 24.3284 15.1716 25 16 25Z" fill="white"/>
      <path d="M17 8.00001H15.5C14.9087 7.99869 14.3229 8.11419 13.7764 8.33987C13.2298 8.56555 12.7332 8.89696 12.3151 9.31509C11.8969 9.73322 11.5655 10.2298 11.3399 10.7764C11.1142 11.3229 10.9987 11.9087 11 12.5V13H13V12.5C13 11.837 13.2634 11.2011 13.7322 10.7322C14.2011 10.2634 14.837 10 15.5 10H17C17.663 10 18.2989 10.2634 18.7678 10.7322C19.2366 11.2011 19.5 11.837 19.5 12.5C19.5 13.1631 19.2366 13.7989 18.7678 14.2678C18.2989 14.7366 17.663 15 17 15H15V19.5H17V17C18.1935 17 19.3381 16.5259 20.182 15.682C21.0259 14.8381 21.5 13.6935 21.5 12.5C21.5 11.3065 21.0259 10.1619 20.182 9.31803C19.3381 8.47412 18.1935 8.00001 17 8.00001V8.00001Z" fill="white"/>
  </symbol>


</svg>