<svg width="0" height="0" class="hidden">

    <symbol viewBox="0 0 18 18" fill="none" xmlns="http://www.w3.org/2000/svg" id="ic_management_class">
        <path d="M17.3571 12.6H11.5714C11.4009 12.6 11.2374 12.6632 11.1169 12.7757C10.9963 12.8883 10.9286 13.0409 10.9286 13.2C10.9286 13.6774 10.7254 14.1352 10.3637 14.4728C10.002 14.8104 9.51149 15 9 15C8.48851 15 7.99797 14.8104 7.63629 14.4728C7.27462 14.1352 7.07143 13.6774 7.07143 13.2C7.07143 13.0409 7.0037 12.8883 6.88314 12.7757C6.76258 12.6632 6.59907 12.6 6.42857 12.6H0.642857C0.472361 12.6 0.308848 12.6632 0.188289 12.7757C0.0677295 12.8883 1.64443e-07 13.0409 1.64443e-07 13.2V15.6C0.000744615 16.2363 0.271901 16.8464 0.753976 17.2963C1.23605 17.7462 1.88967 17.9993 2.57143 18H15.4286C16.1103 17.9993 16.7639 17.7462 17.246 17.2963C17.7281 16.8464 17.9993 16.2363 18 15.6V13.2C18 13.0409 17.9323 12.8883 17.8117 12.7757C17.6912 12.6632 17.5276 12.6 17.3571 12.6ZM17.9783 6.4455L16.6986 1.96687C16.4439 0.734625 15.4904 0 14.1429 0H3.85714C3.18214 0 2.61161 0.175875 2.16563 0.52275C1.71964 0.869625 1.43277 1.35 1.30179 1.965L0.0216966 6.4455C0.00725452 6.49589 -3.99369e-05 6.54784 1.64443e-07 6.6V8.4C1.64443e-07 9.72338 1.15353 11.4 2.57143 11.4H15.4286C16.8465 11.4 18 9.72338 18 8.4V6.6C18 6.54784 17.9927 6.49589 17.9783 6.4455ZM16.4158 6H11.5714C11.4019 5.9992 11.239 6.06123 11.1185 6.17247C10.9979 6.2837 10.9296 6.43505 10.9286 6.59325C10.9286 7.07064 10.7254 7.52848 10.3637 7.86604C10.002 8.20361 9.51149 8.39325 9 8.39325C8.48851 8.39325 7.99797 8.20361 7.63629 7.86604C7.27462 7.52848 7.07143 7.07064 7.07143 6.59325C7.07037 6.43505 7.00206 6.2837 6.88153 6.17247C6.76099 6.06123 6.59808 5.9992 6.42857 6H1.58424C1.57191 5.99999 1.55975 5.99734 1.54869 5.99224C1.53764 5.98714 1.52799 5.97974 1.52049 5.9706C1.513 5.96147 1.50785 5.95084 1.50546 5.93955C1.50307 5.92826 1.50349 5.91661 1.5067 5.9055L2.55978 2.2125C2.70241 1.52213 3.11464 1.2 3.85714 1.2H14.1429C14.8898 1.2 15.3016 1.51988 15.4386 2.20688L16.4933 5.9055C16.4965 5.91661 16.4969 5.92826 16.4945 5.93955C16.4921 5.95084 16.487 5.96147 16.4795 5.9706C16.472 5.97974 16.4624 5.98714 16.4513 5.99224C16.4403 5.99734 16.4281 5.99999 16.4158 6Z" fill="white"/>
    </symbol>


    <symbol viewBox="0 0 59 59" fill="none" xmlns="http://www.w3.org/2000/svg" id="ic_company">
        <path d="M44.25 36.875H39.3333V41.7917H44.25M44.25 27.0417H39.3333V31.9583H44.25M49.1667 46.7083H29.5V41.7917H34.4167V36.875H29.5V31.9583H34.4167V27.0417H29.5V22.125H49.1667M24.5833 17.2083H19.6667V12.2917H24.5833M24.5833 27.0417H19.6667V22.125H24.5833M24.5833 36.875H19.6667V31.9583H24.5833M24.5833 46.7083H19.6667V41.7917H24.5833M14.75 17.2083H9.83332V12.2917H14.75M14.75 27.0417H9.83332V22.125H14.75M14.75 36.875H9.83332V31.9583H14.75M14.75 46.7083H9.83332V41.7917H14.75M29.5 17.2083V7.375H4.91666V51.625H54.0833V17.2083H29.5Z" fill="#21263C"/>
    </symbol>

    <symbol viewBox="0 0 32 32" fill="none" xmlns="http://www.w3.org/2000/svg" id="ic_bar">
        <path d="M5 9H27M5 16H16M5 23H27" stroke="black" stroke-width="1.5" stroke-linecap="round" stroke-linejoin="round"/>
    </symbol>

    <symbol viewBox="0 0 33 32" fill="none" xmlns="http://www.w3.org/2000/svg" id="ic_search">
        <path d="M14.3634 25.3334C20.6227 25.3334 25.6967 20.2594 25.6967 14C25.6967 7.74069 20.6227 2.66669 14.3634 2.66669C8.10403 2.66669 3.03003 7.74069 3.03003 14C3.03003 20.2594 8.10403 25.3334 14.3634 25.3334Z" stroke="#FFCA40" stroke-width="1.33333" stroke-linejoin="round"/>
        <path d="M18.1347 9.56201C17.64 9.06603 17.0521 8.6727 16.4049 8.40464C15.7577 8.13658 15.0639 7.99907 14.3634 8C13.6628 7.99907 12.969 8.13658 12.3218 8.40464C11.6746 8.6727 11.0868 9.06603 10.592 9.56201M22.5114 22.148L28.168 27.8047" stroke="#FFCA40" stroke-width="1.33333" stroke-linecap="round" stroke-linejoin="round"/>
    </symbol>

    <symbol  viewBox="0 0 41 46" fill="none" xmlns="http://www.w3.org/2000/svg" id="ic_location">
        <path d="M34.9962 34.2169L32.2015 36.9196C30.1414 38.8947 27.4691 41.4362 24.1823 44.544C23.1945 45.4779 21.8741 46 20.5 46C19.1259 46 17.8055 45.4779 16.8177 44.544L8.59837 36.7262C7.56243 35.734 6.70071 34.8983 6.0038 34.2169C3.13697 31.4137 1.18468 27.8421 0.393803 23.954C-0.397074 20.0659 0.00898002 16.0357 1.56062 12.3732C3.11226 8.71073 5.73979 5.58035 9.11097 3.37794C12.4821 1.17553 16.4455 0 20.5 0C24.5545 0 28.5179 1.17553 31.889 3.37794C35.2602 5.58035 37.8877 8.71073 39.4394 12.3732C40.991 16.0357 41.3971 20.0659 40.6062 23.954C39.8153 27.8421 37.863 31.4137 34.9962 34.2169ZM26.3861 20.6762C26.3861 19.1498 25.7659 17.6859 24.6621 16.6066C23.5582 15.5273 22.0611 14.921 20.5 14.921C18.9389 14.921 17.4418 15.5273 16.3379 16.6066C15.2341 17.6859 14.6139 19.1498 14.6139 20.6762C14.6139 22.2025 15.2341 23.6664 16.3379 24.7457C17.4418 25.825 18.9389 26.4313 20.5 26.4313C22.0611 26.4313 23.5582 25.825 24.6621 24.7457C25.7659 23.6664 26.3861 22.2025 26.3861 20.6762Z" fill="#FFCA40"/>
    </symbol>
    
    <symbol viewBox="0 0 186 124" fill="none" xmlns="http://www.w3.org/2000/svg" id="ic_warehouse">
        <path d="M179.654 111.603H173.459V13.902L180.947 12.2905C181.76 12.138 182.534 11.8242 183.223 11.3677C183.913 10.9112 184.504 10.3212 184.962 9.63241C185.42 8.94365 185.736 8.1701 185.891 7.35736C186.045 6.54461 186.036 5.70912 185.863 4.90013C185.689 4.09115 185.356 3.32504 184.882 2.64696C184.409 1.96889 183.804 1.39257 183.104 0.951991C182.404 0.51141 181.623 0.215479 180.807 0.0816413C179.991 -0.0521968 179.157 -0.0212325 178.353 0.172709L4.89402 37.3627C3.39967 37.6854 2.07733 38.5495 1.18134 39.7888C0.285343 41.0281 -0.121016 42.5551 0.0404209 44.0762C0.201857 45.5972 0.919688 47.0048 2.05584 48.0282C3.19199 49.0516 4.66622 49.6185 6.19496 49.6199C6.6349 49.6201 7.0736 49.5733 7.50364 49.4805L12.3899 48.4345V111.603H6.19496C4.55195 111.603 2.97624 112.256 1.81446 113.419C0.652681 114.581 0 116.158 0 117.802C0 119.446 0.652681 121.022 1.81446 122.185C2.97624 123.347 4.55195 124 6.19496 124H179.654C181.297 124 182.873 123.347 184.034 122.185C185.196 121.022 185.849 119.446 185.849 117.802C185.849 116.158 185.196 114.581 184.034 113.419C182.873 112.256 181.297 111.603 179.654 111.603ZM136.289 111.603H49.5597V99.2066H136.289V111.603ZM136.289 86.81H49.5597V74.4133H136.289V86.81Z" fill="white"/>
    </symbol>


    <symbol viewBox="0 0 47 47" fill="none" xmlns="http://www.w3.org/2000/svg" id="ic_profile">
        <circle cx="23.5" cy="23.5" r="23.5" fill="#21263C"/>
        <rect width="33.7812" height="33.7812" transform="translate(6.60938 6.60938)" fill="#21263C"/>
        <path d="M16.1104 17.166C16.1104 19.1259 16.8889 21.0055 18.2747 22.3913C19.6606 23.7771 21.5401 24.5557 23.5 24.5557C25.4599 24.5557 27.3394 23.7771 28.7253 22.3913C30.1111 21.0055 30.8896 19.1259 30.8896 17.166C30.8896 15.2062 30.1111 13.3266 28.7253 11.9407C27.3394 10.5549 25.4599 9.77637 23.5 9.77637C21.5401 9.77637 19.6606 10.5549 18.2747 11.9407C16.8889 13.3266 16.1104 15.2062 16.1104 17.166ZM34.0566 37.2236H11.8877C11.6077 37.2236 11.3392 37.1124 11.1412 36.9144C10.9433 36.7165 10.832 36.4479 10.832 36.168V33.001C10.832 31.6011 11.3881 30.2585 12.378 29.2686C13.3679 28.2788 14.7105 27.7227 16.1104 27.7227H30.8896C32.2895 27.7227 33.6321 28.2788 34.622 29.2686C35.6119 30.2585 36.168 31.6011 36.168 33.001V36.168C36.168 36.4479 36.0567 36.7165 35.8588 36.9144C35.6608 37.1124 35.3923 37.2236 35.1123 37.2236H34.0566Z" fill="white"/>
    </symbol>

    <symbol viewBox="0 0 148 148" fill="none" xmlns="http://www.w3.org/2000/svg" id="ic_setting_company">
        <circle cx="74" cy="74" r="74" fill="#21263C"/>
        <path d="M90 82H84.6666V87.3333H90M90 71.3333H84.6666V76.6667H90M95.3333 92.6667H74V87.3333H79.3333V82H74V76.6667H79.3333V71.3333H74V66H95.3333M68.6666 60.6667H63.3333V55.3333H68.6666M68.6666 71.3333H63.3333V66H68.6666M68.6666 82H63.3333V76.6667H68.6666M68.6666 92.6667H63.3333V87.3333H68.6666M58 60.6667H52.6666V55.3333H58M58 71.3333H52.6666V66H58M58 82H52.6666V76.6667H58M58 92.6667H52.6666V87.3333H58M74 60.6667V50H47.3333V98H100.667V60.6667H74Z" fill="white"/>
    </symbol>

    <symbol viewBox="0 0 148 148" fill="none" xmlns="http://www.w3.org/2000/svg" id="ic_setting_warehouse">
        <circle cx="74" cy="74" r="74" fill="#21263C"/>
        <path d="M100 86H98V54.475L100.417 53.955C100.68 53.9058 100.93 53.8045 101.152 53.6572C101.375 53.5099 101.566 53.3196 101.714 53.0973C101.862 52.8751 101.964 52.6255 102.014 52.3632C102.063 52.101 102.06 51.8314 102.004 51.5704C101.949 51.3093 101.841 51.0621 101.688 50.8433C101.535 50.6246 101.34 50.4386 101.114 50.2964C100.888 50.1543 100.636 50.0588 100.372 50.0156C100.109 49.9724 99.8395 49.9824 99.58 50.045L43.58 62.045C43.0976 62.1491 42.6707 62.4279 42.3814 62.8278C42.0921 63.2277 41.9609 63.7204 42.013 64.2112C42.0652 64.702 42.2969 65.1562 42.6637 65.4864C43.0305 65.8166 43.5065 65.9995 44 66C44.142 66 44.2837 65.9849 44.4225 65.955L46 65.6175V86H44C43.4696 86 42.9609 86.2107 42.5858 86.5858C42.2107 86.9608 42 87.4696 42 88C42 88.5304 42.2107 89.0391 42.5858 89.4142C42.9609 89.7893 43.4696 90 44 90H100C100.53 90 101.039 89.7893 101.414 89.4142C101.789 89.0391 102 88.5304 102 88C102 87.4696 101.789 86.9608 101.414 86.5858C101.039 86.2107 100.53 86 100 86ZM86 86H58V82H86V86ZM86 78H58V74H86V78Z" fill="white"/>
    </symbol>

    <symbol viewBox="0 0 148 148" fill="none" xmlns="http://www.w3.org/2000/svg" id="ic_setting_categories">
        <circle cx="74" cy="74" r="74" fill="#21263C"/>
        <path fill-rule="evenodd" clip-rule="evenodd" d="M66 76.6667C67.4145 76.6667 68.771 77.2286 69.7712 78.2288C70.7714 79.229 71.3333 80.5855 71.3333 82V92.6667C71.3333 94.0812 70.7714 95.4377 69.7712 96.4379C68.771 97.4381 67.4145 98 66 98H55.3333C53.9188 98 52.5623 97.4381 51.5621 96.4379C50.5619 95.4377 50 94.0812 50 92.6667V82C50 80.5855 50.5619 79.229 51.5621 78.2288C52.5623 77.2286 53.9188 76.6667 55.3333 76.6667H66ZM92.6667 76.6667C94.0812 76.6667 95.4377 77.2286 96.4379 78.2288C97.4381 79.229 98 80.5855 98 82V92.6667C98 94.0812 97.4381 95.4377 96.4379 96.4379C95.4377 97.4381 94.0812 98 92.6667 98H82C80.5855 98 79.229 97.4381 78.2288 96.4379C77.2286 95.4377 76.6667 94.0812 76.6667 92.6667V82C76.6667 80.5855 77.2286 79.229 78.2288 78.2288C79.229 77.2286 80.5855 76.6667 82 76.6667H92.6667ZM66 50C67.4145 50 68.771 50.5619 69.7712 51.5621C70.7714 52.5623 71.3333 53.9188 71.3333 55.3333V66C71.3333 67.4145 70.7714 68.771 69.7712 69.7712C68.771 70.7714 67.4145 71.3333 66 71.3333H55.3333C53.9188 71.3333 52.5623 70.7714 51.5621 69.7712C50.5619 68.771 50 67.4145 50 66V55.3333C50 53.9188 50.5619 52.5623 51.5621 51.5621C52.5623 50.5619 53.9188 50 55.3333 50H66ZM92.6667 50C94.0812 50 95.4377 50.5619 96.4379 51.5621C97.4381 52.5623 98 53.9188 98 55.3333V66C98 67.4145 97.4381 68.771 96.4379 69.7712C95.4377 70.7714 94.0812 71.3333 92.6667 71.3333H82C80.5855 71.3333 79.229 70.7714 78.2288 69.7712C77.2286 68.771 76.6667 67.4145 76.6667 66V55.3333C76.6667 53.9188 77.2286 52.5623 78.2288 51.5621C79.229 50.5619 80.5855 50 82 50H92.6667Z" fill="white"/>
    </symbol>

    <symbol viewBox="0 0 148 148" fill="none" xmlns="http://www.w3.org/2000/svg" id="ic_setting_brand">
        <circle cx="74" cy="74" r="74" fill="#21263C"/>
        <path d="M65.0546 63.712L63.022 61.6794M73.5675 100.058L52.5858 79.076C51.522 78.0123 50.9183 76.5748 50.8981 75.074L50.625 53.5431C50.62 53.1585 50.692 52.7768 50.8369 52.4205C50.9818 52.0642 51.1965 51.7405 51.4685 51.4685C51.7405 51.1965 52.0642 50.9818 52.4205 50.8369C52.7768 50.692 53.1585 50.62 53.5431 50.625L75.074 50.8981C76.577 50.9174 78.0131 51.5229 79.076 52.5858L100.058 73.5675C101.996 75.5024 103.485 79.1996 101.277 81.4076L81.4105 101.274C79.1996 103.485 75.5024 101.993 73.5675 100.058Z" stroke="white" stroke-width="4" stroke-linecap="round" stroke-linejoin="round"/>
    </symbol>

    <symbol viewBox="0 0 148 148" fill="none" xmlns="http://www.w3.org/2000/svg" id="ic_setting_unit">
        <circle cx="74" cy="74" r="74" fill="#21263C"/>
        <path d="M92.43 54.64C91.3121 53.0371 89.4489 52 87.3684 52L53.2105 52.0314C49.7947 52.0314 47 54.8286 47 58.2857V89.7143C47 93.1714 49.7947 95.9686 53.2105 95.9686L87.3684 96C89.4489 96 91.3121 94.9629 92.43 93.36L106 74L92.43 54.64ZM87.3684 89.7143H53.2105V58.2857H87.3684L98.3921 74L87.3684 89.7143Z" fill="white"/>
    </symbol>

    <symbol viewBox="0 0 148 148" fill="none" xmlns="http://www.w3.org/2000/svg" id="ic_setting_product">
        <circle cx="74" cy="74" r="74" fill="#21263C"/>
        <path fill-rule="evenodd" clip-rule="evenodd" d="M70 51.8763C70.5523 51.8763 71 52.3239 71 52.8763V71.8762C71 72.4285 70.5523 72.8762 70 72.8762H51C50.4477 72.8762 50 72.4285 50 71.8762V52.8763C50 52.3239 50.4477 51.8763 51 51.8763H70ZM66.75 56.1262H54.25V68.6262H66.75V56.1262ZM97.5833 61.6066C97.9738 61.9971 97.9738 62.6303 97.5833 63.0208L86.2696 74.3346C85.8791 74.7251 85.2459 74.7251 84.8554 74.3346L73.5417 63.0208C73.1512 62.6303 73.1512 61.9971 73.5417 61.6066L84.8554 50.2929C85.2459 49.9024 85.8791 49.9024 86.2696 50.2929L97.5833 61.6066ZM92.28 62.3137L85.5625 55.5963L78.845 62.3138L85.5625 69.0312L92.28 62.3137ZM70 76.8762C70.5523 76.8762 71 77.324 71 77.8762V96.8763C71 97.4286 70.5523 97.8763 70 97.8763H51C50.4477 97.8763 50 97.4286 50 96.8763V77.8762C50 77.324 50.4477 76.8762 51 76.8762H70ZM66.75 81.1262H54.25V93.6263H66.75V81.1262ZM95 76.8762C95.5523 76.8762 96 77.324 96 77.8762V96.8763C96 97.4286 95.5523 97.8763 95 97.8763H76C75.4477 97.8763 75 97.4286 75 96.8763V77.8762C75 77.324 75.4477 76.8762 76 76.8762H95ZM91.75 81.1262H79.25V93.6263H91.75V81.1262Z" fill="white"/>
    </symbol>

    <symbol viewBox="0 0 148 148" fill="none" xmlns="http://www.w3.org/2000/svg" id="ic_setting_asset">
        <circle cx="74" cy="74" r="74" fill="#21263C"/>
        <path d="M101 44H77C75.9391 44 74.9217 44.4214 74.1716 45.1716C73.4214 45.9217 73 46.9391 73 48V68H53C51.9391 68 50.9217 68.4214 50.1716 69.1716C49.4214 69.9217 49 70.9391 49 72V100H105V48C105 46.9391 104.579 45.9217 103.828 45.1716C103.078 44.4214 102.061 44 101 44ZM63 96V82H71V96H63ZM101 96H75V80C75 79.4696 74.7893 78.9609 74.4142 78.5858C74.0391 78.2107 73.5304 78 73 78H61C60.4696 78 59.9609 78.2107 59.5858 78.5858C59.2107 78.9609 59 79.4696 59 80V96H53V72H77V48H101V96Z" fill="white"/>
        <path d="M81 56H85V60H81V56ZM93 56H97V60H93V56ZM81 68H85V72H81V68ZM93 68H97V72H93V68ZM81 80H85V84H81V80ZM93 80H97V84H93V80Z" fill="white"/>
    </symbol>


    <symbol viewBox="0 0 148 148" fill="none" xmlns="http://www.w3.org/2000/svg" id="ic_setting_print">
        <circle cx="74" cy="74" r="74" fill="#21263C"/>
        <path d="M76.6667 66V51.3333L91.3334 66M58 47.3333C55.04 47.3333 52.6667 49.7066 52.6667 52.6666V95.3333C52.6667 96.7478 53.2286 98.1044 54.2288 99.1045C55.229 100.105 56.5855 100.667 58 100.667H90C91.4145 100.667 92.7711 100.105 93.7713 99.1045C94.7715 98.1044 95.3334 96.7478 95.3334 95.3333V63.3333L79.3334 47.3333H58Z" fill="white"/>
    </symbol>


    <symbol  viewBox="0 0 40 40" fill="none" xmlns="http://www.w3.org/2000/svg" id="ic_synchronization">
        <path fill-rule="evenodd" clip-rule="evenodd" d="M26.7257 0.417136C26.5259 0.216831 26.2711 0.0803606 25.9937 0.025027C25.7162 -0.0303067 25.4286 -0.00201212 25.1672 0.106324C24.9059 0.214659 24.6826 0.398158 24.5257 0.633555C24.3687 0.868953 24.2852 1.14565 24.2857 1.42856V5.71428H7.14286C5.24845 5.71428 3.43164 6.46683 2.09209 7.80637C0.752549 9.14592 0 10.9627 0 12.8571L0 17.1429C0 17.9006 0.30102 18.6273 0.836838 19.1632C1.37266 19.699 2.09938 20 2.85714 20C3.6149 20 4.34163 19.699 4.87745 19.1632C5.41327 18.6273 5.71429 17.9006 5.71429 17.1429V12.8571C5.71429 12.4783 5.8648 12.1149 6.13271 11.847C6.40061 11.5791 6.76398 11.4286 7.14286 11.4286H24.2857V15.7143C24.2852 15.9972 24.3687 16.2739 24.5257 16.5093C24.6826 16.7447 24.9059 16.9282 25.1672 17.0365C25.4286 17.1449 25.7162 17.1732 25.9937 17.1178C26.2711 17.0625 26.5259 16.926 26.7257 16.7257L33.8686 9.58285C34.0016 9.45015 34.1072 9.2925 34.1792 9.11895C34.2512 8.94539 34.2883 8.75933 34.2883 8.57142C34.2883 8.38352 34.2512 8.19745 34.1792 8.0239C34.1072 7.85034 34.0016 7.69269 33.8686 7.55999L26.7257 0.417136ZM14.8286 22.9657C15.0904 23.0733 15.3143 23.2561 15.472 23.4911C15.6297 23.7261 15.714 24.0027 15.7143 24.2857V28.5714H32.8571C33.236 28.5714 33.5994 28.4209 33.8673 28.153C34.1352 27.8851 34.2857 27.5217 34.2857 27.1429V22.8571C34.2857 22.0994 34.5867 21.3727 35.1226 20.8368C35.6584 20.301 36.3851 20 37.1429 20C37.9006 20 38.6273 20.301 39.1632 20.8368C39.699 21.3727 40 22.0994 40 22.8571V27.1429C40 28.0809 39.8152 29.0097 39.4563 29.8763C39.0973 30.7429 38.5712 31.5303 37.9079 32.1936C37.2446 32.8569 36.4572 33.383 35.5906 33.742C34.724 34.101 33.7952 34.2857 32.8571 34.2857H15.7143V38.5714C15.7148 38.8543 15.6313 39.131 15.4743 39.3664C15.3174 39.6018 15.0941 39.7853 14.8328 39.8937C14.5714 40.002 14.2838 40.0303 14.0063 39.975C13.7289 39.9196 13.4741 39.7832 13.2743 39.5829L6.13143 32.44C5.99839 32.3073 5.89284 32.1496 5.82082 31.9761C5.7488 31.8025 5.71173 31.6165 5.71173 31.4286C5.71173 31.2407 5.7488 31.0546 5.82082 30.881C5.89284 30.7075 5.99839 30.5498 6.13143 30.4171L13.2743 23.2743C13.4742 23.0746 13.7289 22.9387 14.0061 22.8838C14.2832 22.8289 14.5676 22.8574 14.8286 22.9657Z" fill="#FFCA40"/>
    </symbol>

    <symbol  viewBox="0 0 17 12" fill="none" xmlns="http://www.w3.org/2000/svg" id="cash">
        <path d="M0.375 0H16.375V12H0.375V0ZM8.375 3C9.08224 3 9.76052 3.31607 10.2606 3.87868C10.7607 4.44129 11.0417 5.20435 11.0417 6C11.0417 6.79565 10.7607 7.55871 10.2606 8.12132C9.76052 8.68393 9.08224 9 8.375 9C7.66776 9 6.98948 8.68393 6.48938 8.12132C5.98928 7.55871 5.70833 6.79565 5.70833 6C5.70833 5.20435 5.98928 4.44129 6.48938 3.87868C6.98948 3.31607 7.66776 3 8.375 3ZM3.93056 2C3.93056 2.53043 3.74325 3.03914 3.40986 3.41421C3.07646 3.78929 2.62427 4 2.15278 4V8C2.62427 8 3.07646 8.21071 3.40986 8.58579C3.74325 8.96086 3.93056 9.46957 3.93056 10H12.8194C12.8194 9.46957 13.0067 8.96086 13.3401 8.58579C13.6735 8.21071 14.1257 8 14.5972 8V4C14.1257 4 13.6735 3.78929 13.3401 3.41421C13.0067 3.03914 12.8194 2.53043 12.8194 2H3.93056Z" fill="black"/>
    </symbol>

    <symbol  viewBox="0 0 16 16" fill="none" xmlns="http://www.w3.org/2000/svg" id="debit">
        <path d="M1 11.75C1 12.2141 1.18437 12.6592 1.51256 12.9874C1.84075 13.3156 2.28587 13.5 2.75 13.5H13.25C13.7141 13.5 14.1592 13.3156 14.4874 12.9874C14.8156 12.6592 15 12.2141 15 11.75V6.9375H1V11.75ZM3.0625 9.375C3.0625 9.12636 3.16127 8.8879 3.33709 8.71209C3.5129 8.53627 3.75136 8.4375 4 8.4375H5.5C5.74864 8.4375 5.9871 8.53627 6.16291 8.71209C6.33873 8.8879 6.4375 9.12636 6.4375 9.375V10C6.4375 10.2486 6.33873 10.4871 6.16291 10.6629C5.9871 10.8387 5.74864 10.9375 5.5 10.9375H4C3.75136 10.9375 3.5129 10.8387 3.33709 10.6629C3.16127 10.4871 3.0625 10.2486 3.0625 10V9.375ZM13.25 2.5H2.75C2.28587 2.5 1.84075 2.68437 1.51256 3.01256C1.18437 3.34075 1 3.78587 1 4.25V5.0625H15V4.25C15 3.78587 14.8156 3.34075 14.4874 3.01256C14.1592 2.68437 13.7141 2.5 13.25 2.5Z" fill="black"/>
    </symbol>

    <symbol viewBox="0 0 16 16" fill="none" xmlns="http://www.w3.org/2000/svg" id="wallet">
        <g clip-path="url(#clip0_2303_1658)">
        <path d="M9.33333 8.66667C9.49662 8.66669 9.65423 8.72664 9.77625 8.83514C9.89827 8.94365 9.97623 9.09317 9.99533 9.25533L10 9.33333V13.3333C9.99981 13.5033 9.93475 13.6667 9.8181 13.7902C9.70146 13.9138 9.54203 13.9882 9.3724 13.9981C9.20278 14.0081 9.03575 13.9529 8.90545 13.8438C8.77514 13.7348 8.6914 13.5801 8.67133 13.4113L8.66667 13.3333V9.33333C8.66667 9.15652 8.73691 8.98695 8.86193 8.86193C8.98695 8.73691 9.15652 8.66667 9.33333 8.66667ZM11.3333 11.6667C11.5101 11.6667 11.6797 11.7369 11.8047 11.8619C11.9298 11.987 12 12.1565 12 12.3333V13.3333C12 13.5101 11.9298 13.6797 11.8047 13.8047C11.6797 13.9298 11.5101 14 11.3333 14C11.1565 14 10.987 13.9298 10.8619 13.8047C10.7369 13.6797 10.6667 13.5101 10.6667 13.3333V12.3333C10.6667 12.1565 10.7369 11.987 10.8619 11.8619C10.987 11.7369 11.1565 11.6667 11.3333 11.6667ZM13.3333 8.66667C13.4966 8.66669 13.6542 8.72664 13.7762 8.83514C13.8983 8.94365 13.9762 9.09317 13.9953 9.25533L14 9.33333V13.3333C13.9998 13.5033 13.9347 13.6667 13.8181 13.7902C13.7015 13.9138 13.542 13.9882 13.3724 13.9981C13.2028 14.0081 13.0357 13.9529 12.9054 13.8438C12.7751 13.7348 12.6914 13.5801 12.6713 13.4113L12.6667 13.3333V9.33333C12.6667 9.15652 12.7369 8.98695 12.8619 8.86193C12.987 8.73691 13.1565 8.66667 13.3333 8.66667ZM6 8.66667C6.35362 8.66667 6.69276 8.80714 6.94281 9.05719C7.19286 9.30724 7.33333 9.64638 7.33333 10V12.6667C7.33333 13.0203 7.19286 13.3594 6.94281 13.6095C6.69276 13.8595 6.35362 14 6 14H3.33333C2.97971 14 2.64057 13.8595 2.39052 13.6095C2.14048 13.3594 2 13.0203 2 12.6667V10C2 9.64638 2.14048 9.30724 2.39052 9.05719C2.64057 8.80714 2.97971 8.66667 3.33333 8.66667H6ZM11.3333 8.66667C11.4966 8.66669 11.6542 8.72664 11.7762 8.83514C11.8983 8.94365 11.9762 9.09317 11.9953 9.25533L12 9.33333V10.3333C11.9998 10.5033 11.9347 10.6667 11.8181 10.7902C11.7015 10.9138 11.542 10.9882 11.3724 10.9981C11.2028 11.0081 11.0357 10.9529 10.9054 10.8438C10.7751 10.7348 10.6914 10.5801 10.6713 10.4113L10.6667 10.3333V9.33333C10.6667 9.15652 10.7369 8.98695 10.8619 8.86193C10.987 8.73691 11.1565 8.66667 11.3333 8.66667ZM6 2C6.35362 2 6.69276 2.14048 6.94281 2.39052C7.19286 2.64057 7.33333 2.97971 7.33333 3.33333V6C7.33333 6.35362 7.19286 6.69276 6.94281 6.94281C6.69276 7.19286 6.35362 7.33333 6 7.33333H3.33333C2.97971 7.33333 2.64057 7.19286 2.39052 6.94281C2.14048 6.69276 2 6.35362 2 6V3.33333C2 2.97971 2.14048 2.64057 2.39052 2.39052C2.64057 2.14048 2.97971 2 3.33333 2H6ZM12.6667 2C13.0203 2 13.3594 2.14048 13.6095 2.39052C13.8595 2.64057 14 2.97971 14 3.33333V6C14 6.35362 13.8595 6.69276 13.6095 6.94281C13.3594 7.19286 13.0203 7.33333 12.6667 7.33333H10C9.64638 7.33333 9.30724 7.19286 9.05719 6.94281C8.80714 6.69276 8.66667 6.35362 8.66667 6V3.33333C8.66667 2.97971 8.80714 2.64057 9.05719 2.39052C9.30724 2.14048 9.64638 2 10 2H12.6667Z" fill="black"/>
        </g>
        <defs>
        <clipPath id="clip0_2303_1658">
        <rect width="16" height="16" fill="white"/>
        </clipPath>
        </defs>
    </symbol>



    <symbol viewBox="0 0 101 101" fill="none" xmlns="http://www.w3.org/2000/svg" id="ic_customer">
        <circle cx="50.8423" cy="50.7104" r="50" fill="white"/>
        <path d="M78.5 67.0017V75.5H77.5V67V66.9982C77.4963 63.9498 76.2838 61.0273 74.1282 58.8718C72.3289 57.0725 69.9952 55.9302 67.5 55.5997V54.5921C70.2609 54.9289 72.8472 56.1789 74.8342 58.1658C77.1779 60.5095 78.4962 63.6872 78.5 67.0017ZM62.5 67.0017V75.5H61.5V67V66.9982C61.4963 63.9498 60.2838 61.0273 58.1282 58.8718C55.9727 56.7162 53.0502 55.5037 50.0018 55.5H50H38H37.9982C34.9498 55.5037 32.0273 56.7162 29.8718 58.8718C27.7162 61.0273 26.5037 63.9498 26.5 66.9982V67V75.5H25.5V67.0009C25.504 63.6867 26.8223 60.5094 29.1658 58.1658C31.5095 55.8221 34.6872 54.5038 38.0017 54.5H49.9983C53.3128 54.5038 56.4905 55.8221 58.8342 58.1658C61.1779 60.5095 62.4962 63.6872 62.5 67.0017ZM61.5 23.5982V22.5903C64.2625 22.9241 66.851 24.1733 68.8388 26.1612C71.183 28.5054 72.5 31.6848 72.5 35C72.5 38.3152 71.183 41.4946 68.8388 43.8388C66.851 45.8267 64.2625 47.0759 61.5 47.4097V46.4018C63.9964 46.0734 66.3317 44.9317 68.1317 43.1317C70.2884 40.9751 71.5 38.05 71.5 35C71.5 31.95 70.2884 29.0249 68.1317 26.8683C66.3317 25.0683 63.9964 23.9266 61.5 23.5982ZM50.3891 25.4381C48.4979 24.1745 46.2745 23.5 44 23.5C40.95 23.5 38.0249 24.7116 35.8683 26.8683C33.7116 29.0249 32.5 31.95 32.5 35C32.5 37.2745 33.1745 39.4979 34.4381 41.3891C35.7017 43.2802 37.4978 44.7542 39.5991 45.6246C41.7005 46.495 44.0128 46.7228 46.2435 46.279C48.4743 45.8353 50.5234 44.74 52.1317 43.1317C53.74 41.5234 54.8353 39.4743 55.279 37.2435C55.7228 35.0128 55.495 32.7005 54.6246 30.5991C53.7542 28.4978 52.2802 26.7017 50.3891 25.4381ZM37.0554 24.6066C39.111 23.2331 41.5277 22.5 44 22.5C47.3152 22.5 50.4946 23.817 52.8388 26.1612C55.183 28.5054 56.5 31.6848 56.5 35C56.5 37.4723 55.7669 39.889 54.3934 41.9446C53.0199 44.0002 51.0676 45.6024 48.7835 46.5485C46.4995 47.4946 43.9861 47.7421 41.5614 47.2598C39.1366 46.7775 36.9093 45.587 35.1612 43.8388C33.413 42.0907 32.2225 39.8634 31.7402 37.4386C31.2579 35.0139 31.5054 32.5005 32.4515 30.2165C33.3976 27.9324 34.9998 25.9801 37.0554 24.6066Z" fill="#605656de" stroke="#605656de" stroke-width="3"/>
    </symbol>


    <symbol viewBox="0 0 101 101" fill="none" xmlns="http://www.w3.org/2000/svg" id="ic_staff">
        <circle cx="50.1951" cy="50.5" r="50" fill="white"/>
        <path d="M75.803 67.7005C74.3983 64.557 72.3597 61.7016 69.8009 59.2935C67.2499 56.8784 64.228 54.9528 60.9021 53.6231C60.8723 53.609 60.8425 53.602 60.8127 53.5879C65.452 50.4221 68.468 45.2653 68.468 39.4472C68.468 29.809 60.2021 22 50 22C39.7979 22 31.532 29.809 31.532 39.4472C31.532 45.2653 34.548 50.4221 39.1873 53.595C39.1575 53.609 39.1277 53.6161 39.0979 53.6301C35.7618 54.9598 32.7682 56.8663 30.1991 59.3005C27.6427 61.7105 25.6045 64.5654 24.197 67.7075C22.8143 70.7837 22.0686 74.0817 22.0002 77.4231C21.9982 77.4982 22.0121 77.5729 22.0412 77.6428C22.0702 77.7127 22.1138 77.7765 22.1693 77.8302C22.2248 77.884 22.2912 77.9267 22.3645 77.9559C22.4377 77.985 22.5164 78 22.5959 78H27.064C27.3916 78 27.6523 77.7538 27.6597 77.4513C27.8087 72.0201 30.1172 66.9337 34.198 63.0784C38.4203 59.0894 44.0277 56.8945 50 56.8945C55.9723 56.8945 61.5797 59.0894 65.802 63.0784C69.8828 66.9337 72.1913 72.0201 72.3403 77.4513C72.3477 77.7608 72.6084 78 72.936 78H77.4041C77.4836 78 77.5623 77.985 77.6355 77.9559C77.7088 77.9267 77.7752 77.884 77.8307 77.8302C77.8862 77.7765 77.9298 77.7127 77.9588 77.6428C77.9879 77.5729 78.0018 77.4982 77.9998 77.4231C77.9253 74.0603 77.1881 70.7889 75.803 67.7005V67.7005ZM50 51.5477C46.5819 51.5477 43.3649 50.2884 40.9447 48.002C38.5245 45.7156 37.1916 42.6764 37.1916 39.4472C37.1916 36.2181 38.5245 33.1789 40.9447 30.8925C43.3649 28.606 46.5819 27.3467 50 27.3467C53.4181 27.3467 56.6351 28.606 59.0553 30.8925C61.4755 33.1789 62.8084 36.2181 62.8084 39.4472C62.8084 42.6764 61.4755 45.7156 59.0553 48.002C56.6351 50.2884 53.4181 51.5477 50 51.5477Z" fill="#605656de"/>
    </symbol>

    <symbol viewBox="0 0 101 101" fill="none" xmlns="http://www.w3.org/2000/svg" id="ic_package">
        <circle cx="50.0347" cy="50.7104" r="50" fill="white"/>
        <path d="M78 23H22V40.6842H24.8V73.1053C24.8 74.6686 25.39 76.168 26.4402 77.2735C27.4904 78.3789 28.9148 79 30.4 79H69.6C71.0852 79 72.5096 78.3789 73.5598 77.2735C74.61 76.168 75.2 74.6686 75.2 73.1053V40.6842H78V23ZM27.6 28.8947H72.4V34.7895H27.6V28.8947ZM69.6 73.1053H30.4V40.6842H69.6V73.1053ZM41.6 46.5789H58.4C58.4 48.1423 57.81 49.6417 56.7598 50.7472C55.7096 51.8526 54.2852 52.4737 52.8 52.4737H47.2C45.7148 52.4737 44.2904 51.8526 43.2402 50.7472C42.19 49.6417 41.6 48.1423 41.6 46.5789Z" fill="#605656de"/>
    </symbol>

    


    <symbol viewBox="0 0 100 100" fill="none" xmlns="http://www.w3.org/2000/svg" id="ic_setting_packages">
        <circle cx="50" cy="50" r="50" fill="black"/>
        <path d="M70.0834 31.875H30.9167V43.625H32.875V65.1667C32.875 66.2054 33.2877 67.2016 34.0222 67.9362C34.7567 68.6707 35.7529 69.0833 36.7917 69.0833H64.2084C65.2471 69.0833 66.2433 68.6707 66.9779 67.9362C67.7124 67.2016 68.125 66.2054 68.125 65.1667V43.625H70.0834V31.875ZM34.8334 35.7917H66.1667V39.7083H34.8334V35.7917ZM64.2084 65.1667H36.7917V43.625H64.2084V65.1667ZM44.625 47.5417H56.375C56.375 48.5804 55.9624 49.5766 55.2279 50.3112C54.4933 51.0457 53.4971 51.4583 52.4584 51.4583H48.5417C47.5029 51.4583 46.5067 51.0457 45.7722 50.3112C45.0377 49.5766 44.625 48.5804 44.625 47.5417Z" fill="#F8F8F8"/>
    </symbol>

    <symbol viewBox="0 0 100 100" fill="none" xmlns="http://www.w3.org/2000/svg" id="ic_setting_lang">
        <circle cx="50" cy="50" r="50" fill="black"/>
        <path d="M32 71V39.32C32 39.32 37.76 35 43.52 35C49.28 35 50.72 39.32 56.48 39.32C62.24 39.32 68 35 68 35V55.16C68 55.16 62.24 59.48 56.48 59.48C50.72 59.48 49.28 55.16 43.52 55.16C37.76 55.16 32 59.48 32 59.48" stroke="white" stroke-width="1.5" stroke-linecap="round" stroke-linejoin="round"/>
        <path d="M65.461 53.8291C65.8752 53.8291 66.211 53.4933 66.211 53.0791C66.211 52.6649 65.8752 52.3291 65.461 52.3291C65.0468 52.3291 64.711 52.6649 64.711 53.0791C64.711 53.4933 65.0468 53.8291 65.461 53.8291Z" fill="white"/>
    </symbol>


    <symbol  viewBox="0 0 100 100" fill="none" xmlns="http://www.w3.org/2000/svg" id="ic_setting_print">
        <circle cx="50" cy="50" r="50" fill="black"/>
        <path d="M30.5 48.8311H69.5V69.3061H30.5V48.8311Z" stroke="white" stroke-linecap="round" stroke-linejoin="round"/>
        <path d="M63.163 68.3063V58.0693H36.81V68.3063M63.163 62.1083L70.266 68.3063M59.75 68.3063H41.573M58.288 71.9273H41.573M55.293 39.8923V33.6943H37.604V47.8313H62.396V39.8923H55.293V39.8923Z" stroke="white" stroke-linecap="round" stroke-linejoin="round"/>
        <path d="M65.461 53.8291C65.8752 53.8291 66.211 53.4933 66.211 53.0791C66.211 52.6649 65.8752 52.3291 65.461 52.3291C65.0468 52.3291 64.711 52.6649 64.711 53.0791C64.711 53.4933 65.0468 53.8291 65.461 53.8291Z" fill="white"/>
    </symbol>


    <symbol viewBox="0 0 101 101" fill="none" xmlns="http://www.w3.org/2000/svg" id="ic_clock">
        <circle cx="50.906" cy="50.7104" r="50" fill="white"/>
        <path d="M50.5 30.8C49.585 30.8 48.7075 31.1635 48.0605 31.8105C47.4135 32.4575 47.05 33.335 47.05 34.25V48.05H40.15C39.235 48.05 38.3575 48.4135 37.7105 49.0605C37.0635 49.7075 36.7 50.585 36.7 51.5C36.7 52.415 37.0635 53.2925 37.7105 53.9395C38.3575 54.5865 39.235 54.95 40.15 54.95H50.5C51.415 54.95 52.2925 54.5865 52.9395 53.9395C53.5865 53.2925 53.95 52.415 53.95 51.5V34.25C53.95 33.335 53.5865 32.4575 52.9395 31.8105C52.2925 31.1635 51.415 30.8 50.5 30.8ZM50.5 17C43.6766 17 37.0063 19.0234 31.3328 22.8143C25.6593 26.6052 21.2374 31.9934 18.6262 38.2974C16.0149 44.6015 15.3317 51.5383 16.6629 58.2306C17.9941 64.9229 21.2799 71.0703 26.1048 75.8952C30.9297 80.7201 37.0771 84.0059 43.7694 85.3371C50.4617 86.6683 57.3985 85.9851 63.7026 83.3738C70.0066 80.7626 75.3948 76.3407 79.1857 70.6672C82.9766 64.9937 85 58.3234 85 51.5C84.99 42.3531 81.3519 33.5837 74.8841 27.1159C68.4163 20.6481 59.6469 17.01 50.5 17V17ZM50.5 79.1C45.0412 79.1 39.7051 77.4813 35.1663 74.4485C30.6275 71.4158 27.0899 67.1053 25.0009 62.062C22.912 57.0188 22.3654 51.4694 23.4303 46.1155C24.4953 40.7616 27.1239 35.8438 30.9839 31.9838C34.8438 28.1239 39.7616 25.4953 45.1155 24.4303C50.4694 23.3654 56.0188 23.9119 61.0621 26.0009C66.1053 28.0899 70.4158 31.6275 73.4486 36.1663C76.4813 40.7051 78.1 46.0412 78.1 51.5C78.0909 58.8172 75.1801 65.832 70.0061 71.006C64.832 76.1801 57.8172 79.0909 50.5 79.1Z" fill="#605656de"/>
    </symbol>



    



</svg>