<svg width="186" height="124" viewBox="0 0 186 124" fill="none" xmlns="http://www.w3.org/2000/svg">
<path d="M179.654 111.603H173.459V13.902L180.947 12.2905C181.76 12.138 182.534 11.8242 183.223 11.3677C183.913 10.9112 184.504 10.3212 184.962 9.63241C185.42 8.94365 185.736 8.1701 185.891 7.35736C186.045 6.54461 186.036 5.70912 185.863 4.90013C185.689 4.09115 185.356 3.32504 184.882 2.64696C184.409 1.96889 183.804 1.39257 183.104 0.951991C182.404 0.51141 181.623 0.215479 180.807 0.0816413C179.991 -0.0521968 179.157 -0.0212325 178.353 0.172709L4.89402 37.3627C3.39967 37.6854 2.07733 38.5495 1.18134 39.7888C0.285343 41.0281 -0.121016 42.5551 0.0404209 44.0762C0.201857 45.5972 0.919688 47.0048 2.05584 48.0282C3.19199 49.0516 4.66622 49.6185 6.19496 49.6199C6.6349 49.6201 7.0736 49.5733 7.50364 49.4805L12.3899 48.4345V111.603H6.19496C4.55195 111.603 2.97624 112.256 1.81446 113.419C0.652681 114.581 0 116.158 0 117.802C0 119.446 0.652681 121.022 1.81446 122.185C2.97624 123.347 4.55195 124 6.19496 124H179.654C181.297 124 182.873 123.347 184.034 122.185C185.196 121.022 185.849 119.446 185.849 117.802C185.849 116.158 185.196 114.581 184.034 113.419C182.873 112.256 181.297 111.603 179.654 111.603ZM136.289 111.603H49.5597V99.2066H136.289V111.603ZM136.289 86.81H49.5597V74.4133H136.289V86.81Z" fill="white"/>
</svg>
