<svg width="0" height="0" class="hidden">
  <symbol fill="none" xmlns="http://www.w3.org/2000/svg" viewBox="0 0 180 180" id="alert">
    <path d="M90 0C40.2991 0 0 40.2991 0 90C0 139.701 40.2991 180 90 180C139.701 180 180 139.701 180 90C180 40.2991 139.701 0 90 0ZM90 164.732C48.7366 164.732 15.2679 131.263 15.2679 90C15.2679 48.7366 48.7366 15.2679 90 15.2679C131.263 15.2679 164.732 48.7366 164.732 90C164.732 131.263 131.263 164.732 90 164.732Z" fill="currentColor"></path>
    <path d="M80.3572 125.357C80.3572 127.915 81.3732 130.367 83.1816 132.176C84.99 133.984 87.4427 135 90.0001 135C92.5575 135 95.0102 133.984 96.8186 132.176C98.627 130.367 99.643 127.915 99.643 125.357C99.643 122.8 98.627 120.347 96.8186 118.539C95.0102 116.73 92.5575 115.714 90.0001 115.714C87.4427 115.714 84.99 116.73 83.1816 118.539C81.3732 120.347 80.3572 122.8 80.3572 125.357ZM85.1787 102.857H94.8215C95.7055 102.857 96.4287 102.134 96.4287 101.25V46.6071C96.4287 45.7232 95.7055 45 94.8215 45H85.1787C84.2947 45 83.5715 45.7232 83.5715 46.6071V101.25C83.5715 102.134 84.2947 102.857 85.1787 102.857Z" fill="currentColor"></path>
  </symbol>
  <symbol fill="none" xmlns="http://www.w3.org/2000/svg" viewBox="0 0 180 180" id="success">
    <path fill-rule="evenodd" clip-rule="evenodd" d="M127.965 63.2599C131.436 66.1527 131.905 71.3118 129.013 74.7832L88.1035 123.874C86.6319 125.64 84.4853 126.705 82.1889 126.81C79.8924 126.914 77.6582 126.047 76.0327 124.422L51.4872 99.8762C48.292 96.681 48.292 91.5005 51.4872 88.3053C54.6824 85.1101 59.8629 85.1101 63.0581 88.3053L81.2683 106.516L116.442 64.3074C119.335 60.8361 124.494 60.3671 127.965 63.2599Z" fill="#FFCA40"></path>
    <path fill-rule="evenodd" clip-rule="evenodd" d="M90 16.3636C49.3318 16.3636 16.3636 49.3318 16.3636 90C16.3636 130.668 49.3318 163.636 90 163.636C130.668 163.636 163.636 130.668 163.636 90C163.636 49.3318 130.668 16.3636 90 16.3636ZM0 90C0 40.2944 40.2944 0 90 0C139.706 0 180 40.2944 180 90C180 139.706 139.706 180 90 180C40.2944 180 0 139.706 0 90Z" fill="#FFCA40"></path>
  </symbol>
  <symbol fill="none" xmlns="http://www.w3.org/2000/svg" viewBox="0 0 180 180" id="success2">
    <path fill-rule="evenodd" clip-rule="evenodd" d="M127.965 63.2599C131.436 66.1527 131.905 71.3118 129.013 74.7832L88.1035 123.874C86.6319 125.64 84.4853 126.705 82.1889 126.81C79.8924 126.914 77.6582 126.047 76.0327 124.422L51.4872 99.8762C48.292 96.681 48.292 91.5005 51.4872 88.3053C54.6824 85.1101 59.8629 85.1101 63.0581 88.3053L81.2683 106.516L116.442 64.3074C119.335 60.8361 124.494 60.3671 127.965 63.2599Z" fill="#0079C3"/>
    <path fill-rule="evenodd" clip-rule="evenodd" d="M90 16.3636C49.3318 16.3636 16.3636 49.3318 16.3636 90C16.3636 130.668 49.3318 163.636 90 163.636C130.668 163.636 163.636 130.668 163.636 90C163.636 49.3318 130.668 16.3636 90 16.3636ZM0 90C0 40.2944 40.2944 0 90 0C139.706 0 180 40.2944 180 90C180 139.706 139.706 180 90 180C40.2944 180 0 139.706 0 90Z" fill="#0079C3"/>
  </symbol>
</svg>