<svg width="0" height="0" class="hidden">
  <symbol fill="none" xmlns="http://www.w3.org/2000/svg" viewBox="0 0 16 16" id="location">
    <path d="M7.5814 0C6.10112 0 4.68147 0.588038 3.63475 1.63475C2.58804 2.68147 2 4.10112 2 5.5814C2 11.1628 7.5814 16 7.5814 16C7.5814 16 13.1628 11.1628 13.1628 5.5814C13.1628 4.10112 12.5748 2.68147 11.528 1.63475C10.4813 0.588038 9.06167 0 7.5814 0ZM7.5814 8.93023C6.69323 8.93023 5.84144 8.57741 5.21341 7.94938C4.58538 7.32135 4.23256 6.46956 4.23256 5.5814C4.23256 4.69323 4.58538 3.84144 5.21341 3.21341C5.84144 2.58538 6.69323 2.23256 7.5814 2.23256C8.46956 2.23256 9.32135 2.58538 9.94938 3.21341C10.5774 3.84144 10.9302 4.69323 10.9302 5.5814C10.9302 6.46956 10.5774 7.32135 9.94938 7.94938C9.32135 8.57741 8.46956 8.93023 7.5814 8.93023Z" fill="var(--primary-color)"></path>
  </symbol>
  <symbol fill="none" xmlns="http://www.w3.org/2000/svg" viewBox="0 0 36 36" id="pic">
    <path d="M4 36H32C33.0609 36 34.0783 35.5786 34.8284 34.8284C35.5786 34.0783 36 33.0609 36 32V4C36 2.93913 35.5786 1.92172 34.8284 1.17157C34.0783 0.421427 33.0609 0 32 0H4C2.93913 0 1.92172 0.421427 1.17157 1.17157C0.421427 1.92172 0 2.93913 0 4V32C0 33.0609 0.421427 34.0783 1.17157 34.8284C1.92172 35.5786 2.93913 36 4 36ZM10 22L14.726 26.726L22 16L32 30H4L10 22Z" fill="#A4A4A4"/>
  </symbol>

</svg>